<?xml version="1.0" encoding="UTF-8" standalone="no"?>
<!-- Created with Inkscape (http://www.inkscape.org/) -->

<svg
   width="128"
   height="128"
   viewBox="0 0 128 128"
   version="1.1"
   id="svg1"
   xml:space="preserve"
   inkscape:version="1.4 (86a8ad7, 2024-10-11)"
   sodipodi:docname="realmr_logo.svg"
   xmlns:inkscape="http://www.inkscape.org/namespaces/inkscape"
   xmlns:sodipodi="http://sodipodi.sourceforge.net/DTD/sodipodi-0.dtd"
   xmlns="http://www.w3.org/2000/svg"
   xmlns:svg="http://www.w3.org/2000/svg"><sodipodi:namedview
     id="namedview1"
     pagecolor="#505050"
     bordercolor="#ffffff"
     borderopacity="1"
     inkscape:showpageshadow="0"
     inkscape:pageopacity="0"
     inkscape:pagecheckerboard="1"
     inkscape:deskcolor="#505050"
     inkscape:document-units="px"
     inkscape:zoom="4"
     inkscape:cx="60.75"
     inkscape:cy="77.25"
     inkscape:window-width="1920"
     inkscape:window-height="1009"
     inkscape:window-x="1072"
     inkscape:window-y="421"
     inkscape:window-maximized="1"
     inkscape:current-layer="layer1" /><defs
     id="defs1"><inkscape:path-effect
   effect="powerstroke"
   message=""
   id="path-effect93"
   is_visible="true"
   lpeversion="1.3"
   scale_width="1"
   interpolator_type="CentripetalCatmullRom"
   interpolator_beta="0.2"
   start_linecap_type="zerowidth"
   end_linecap_type="zerowidth"
   offset_points="0.065181975,0.12799713 | 0.50275139,0.18012016 | 0.98296732,0.084561264"
   linejoin_type="round"
   miter_limit="4"
   not_jump="false"
   sort_points="true" /><inkscape:path-effect
   effect="powerstroke"
   message=""
   id="path-effect90"
   is_visible="true"
   lpeversion="1.3"
   scale_width="0.6"
   interpolator_type="CentripetalCatmullRom"
   interpolator_beta="0.2"
   start_linecap_type="zerowidth"
   end_linecap_type="zerowidth"
   offset_points="0.029561899,0.13381594 | 3.993713,0.30172106 | 7.6022103,0.11640397"
   linejoin_type="round"
   miter_limit="4"
   not_jump="false"
   sort_points="true" />
	
	
	

	
	
	
	
	
	
	
</defs><g
     inkscape:label="Layer 1"
     inkscape:groupmode="layer"
     id="layer1"><path
       id="path123"
       style="fill:#ffffff;fill-opacity:1;stroke:none;stroke-width:1.88976;stroke-linecap:round;stroke-dasharray:none;stroke-opacity:1;paint-order:stroke markers fill"
       d="M 75.141598,0.996582 C 74.701392,2.606374 74.443582,4.260672 74.373044,5.9282224 74.373246,18.209773 84.316776,28.165762 96.582514,28.165526 102.346,28.033896 107.83252,25.663418 111.88232,21.555174 102.30441,10.754915 89.356568,3.5098356 75.141598,0.996582 Z M 24.956054,21.5791 c -1.422144,0 -2.575196,1.154638 -2.575196,2.578614 v 3.206542 c 0,0.833902 -0.674984,1.509766 -1.507812,1.509766 h -2.438965 c -0.832829,0 -1.507324,-0.67616 -1.507324,-1.509766 v -3.206542 c 0,-0.915866 -0.493628,-1.696186 -1.213379,-2.15039 C 5.5834156,33.652222 0.00292128,48.565626 0,63.999996 0.04390414,98.802542 27.890312,127.191 62.685544,127.90575 c 2.75657,-2.71385 5.924762,-6.29687 10.335936,-11.22704 5.150248,-5.75625 -3.114056,-6.11552 -9.8208,-10.79248 -4.16495,-2.90412 -5.509348,-6.475976 -1.437012,-11.5127 3.564286,-4.408574 9.448882,-7.892354 14.625,-10.792968 h 5.115722 c -3.430264,2.27669 -8.09522,5.752462 -11.117674,9.114746 -4.311636,4.797118 -1.915766,5.995418 8.624022,8.873542 10.981194,2.99901 14.13173,7.19552 13.173828,13.1914 -0.3597,2.25132 -1.73276,5.21794 -3.287598,8.08643 20.390552,-8.62349 34.876172,-27.172802 38.300772,-49.045414 -1.32509,-0.523882 -2.3908,-0.986242 -3.30615,-1.522462 -1.64492,-0.963646 -8.50585,-7.24215 -8.50585,-7.78369 0,-0.13278 0.25547,-0.24121 0.56786,-0.24121 1.04212,0 5.30355,-1.142464 6.91114,-1.853028 1.04629,-0.462486 1.55981,-0.842584 1.50683,-1.114258 -0.0456,-0.23358 -0.85239,-0.672688 -1.86181,-1.013672 -0.97962,-0.330906 -2.27412,-0.854222 -2.87696,-1.162598 -1.35266,-0.691956 -3.983,-3.413938 -4.74609,-4.91162 l -0.56738,-1.113282 2.19726,-0.433594 c 2.11128,-0.416482 3.52735,-1.038282 3.52735,-1.54834 0,-0.13302 -0.71911,-0.501306 -1.43848,-1.058592 -7.40752,-5.738582 -8.4082,-9.82666 -8.4082,-9.82666 0,0 0.35539,2.206232 -9.47167,9.969238 -0.68426,0.540536 -1.406574,0.989398 -1.451674,1.223632 -0.1008,0.524106 1.697354,1.29261 3.532714,1.510254 1.84031,0.218236 2.03101,0.390756 1.52344,1.373536 -0.79774,1.544664 -2.94428,3.91454 -4.23144,4.671386 -0.70994,0.417428 -2.206424,1.069952 -3.325202,1.450684 -1.11875,0.380712 -2.085562,0.846774 -2.148434,1.035644 -0.1617,0.485734 2.909526,1.809252 5.552736,2.393066 1.20568,0.266296 2.54517,0.563474 2.97607,0.659668 0.78062,0.17428 0.77376,0.18458 -1.85937,2.833984 -4.011654,4.03645 -7.005342,5.62156 -10.15918,7.064942 -1.761342,0.806092 -2.514308,1.052342 -3.829102,1.236816 0.11748,0.1314 0.235252,0.26251 0.355956,0.399414 0.26238,0.29457 0.58249,0.58237 1.030274,0.860838 0.41758,0.259682 0.965792,0.524298 1.73584,0.790528 0.730402,0.25251 1.659352,0.506746 2.88037,0.766114 1.173594,0.249296 2.609042,0.501198 4.441896,0.77246 0.768472,0.12004 1.576288,0.257254 2.366206,0.40088 0.0608,0.0128 0.128,0.03334 0.19824,0.06544 0.0709,0.03238 0.14266,0.07598 0.21143,0.13428 0.0693,0.05864 0.1297,0.1276 0.1787,0.204102 0.0488,0.07616 0.0825,0.15364 0.10546,0.228516 0.0449,0.14678 0.0465,0.279504 0.0381,0.374022 -0.009,0.0958 -0.0292,0.17828 -0.0489,0.2417 -0.0386,0.12442 -0.0943,0.236266 -0.14306,0.32422 -0.0515,0.09294 -0.11102,0.18668 -0.17334,0.277342 -0.12528,0.1823 -0.28142,0.382176 -0.45214,0.587892 -0.174164,0.20986 -0.370852,0.434602 -0.57813,0.664062 -0.423298,0.468558 -0.905366,0.972888 -1.354498,1.43457 -0.462378,0.475332 -0.925776,0.942164 -1.26172,1.281738 -0.02004,0.02004 -0.04034,0.0398 -0.06056,0.06006 -1.449902,1.453964 -3.114496,2.856046 -5.196294,4.186034 -1.884264,1.203782 -4.064156,2.322156 -6.770508,3.437012 -1.066202,0.440428 -1.880282,0.779562 -2.487304,1.046386 -0.607962,0.267216 -0.979722,0.449224 -1.20166,0.584956 -0.04038,0.02466 -0.03938,0.029 -0.06494,0.04686 0.0022,0.0221 0.01,0.0619 0.04834,0.12744 0.0472,0.0806 0.14092,0.201486 0.323242,0.36035 0.189,0.16472 0.44687,0.346762 0.784178,0.548342 0.355986,0.212732 0.779566,0.43459 1.266114,0.666502 2.431896,1.12988 5.17798,1.925026 7.717284,2.486816 4.399426,0.973294 7.989154,1.248714 9.003906,1.523924 0.52421,0.14214 0.49516,0.34955 0.59521,0.41895 -0.10096,0.0608 -0.0909,0.27656 -0.62841,0.37353 -1.046162,0.18878 -4.717748,0.2201 -9.312014,-0.59522 -2.637566,-0.46808 -5.558982,-1.227286 -8.194824,-2.398428 -0.532988,-0.231024 -1.027688,-0.470192 -1.464844,-0.71778 -0.410416,-0.23245 -0.784908,-0.481162 -1.101562,-0.751946 -0.302962,-0.25905 -0.575118,-0.556498 -0.77002,-0.903326 -0.19472,-0.346508 -0.305648,-0.730754 -0.302246,-1.142088 0.0014,-0.09242 0.0042,-0.241844 0.0288,-0.397946 0.02692,-0.171 0.08116,-0.363624 0.19288,-0.55957 0.10944,-0.19194 0.250096,-0.345706 0.401366,-0.473146 0.14702,-0.12388 0.313266,-0.230306 0.486816,-0.327636 0.341422,-0.19152 0.812808,-0.402278 1.428712,-0.65918 0.6301,-0.262814 1.470988,-0.597786 2.535156,-1.023438 2.634724,-1.056368 4.72448,-2.102708 6.510252,-3.219238 1.96945,-1.231368 3.541586,-2.534504 4.910648,-3.901854 0.019,-0.019 0.03826,-0.03788 0.05716,-0.05712 0.335782,-0.336318 0.80845,-0.80573 1.262692,-1.26465 0.44777,-0.452366 0.91851,-0.935268 1.328126,-1.375974 0.18646,-0.200622 0.354132,-0.387618 0.50488,-0.561036 -0.399412,-0.10652 -0.816416,-0.21205 -1.183106,-0.316896 C 95.67744,80.379754 94.213094,80.097166 93.005836,79.813466 91.750444,79.51842 90.769422,79.221182 89.979958,78.915516 89.1448,78.592152 88.455046,78.339162 87.95945,77.986806 86.75441,77.130084 85.778992,75.62323 85.758766,75.58495 l -1.50537,-0.07862 -3.984864,-7.038086 c -1.443644,-2.549736 -5.121784,-2.549736 -6.565428,0 l -1.338868,2.364258 -4.55127,-11.579588 c -0.0198,-0.05078 -0.04354,-0.0994 -0.06544,-0.14892 -1.3714,-3.09303 -5.746958,-2.931752 -6.958008,0.14892 l -3.482422,8.859374 c -0.0022,0.294708 -0.0022,0.643206 -0.0038,0.925782 -0.03076,4.873446 0.096,13.406066 -0.471192,14.967282 -0.12044,0.331536 -0.347034,0.442284 -0.416504,0.530762 -0.06948,-0.08848 -0.296546,-0.19922 -0.416992,-0.530762 -0.451216,-1.242014 -0.455524,-6.685562 -0.49121,-11.312498 l -0.03418,-30.696288 h 0.0332 l 5.407714,-7.233398 V 28.874008 24.1577 c 0,-1.423976 -1.15305,-2.578614 -2.575194,-2.578614 h -4.021484 c -1.422144,0 -2.575196,1.154638 -2.575196,2.578614 v 3.206542 c 0,0.833904 -0.674792,1.509766 -1.507324,1.509766 H 47.79597 c -0.83283,0 -1.507814,-0.67616 -1.507814,-1.509766 V 24.1577 c 0,-1.423976 -1.153054,-2.578614 -2.575194,-2.578614 h -4.031738 c -1.422144,0 -2.574708,1.154638 -2.574708,2.578614 v 3.206542 c 0,0.833904 -0.675766,1.509766 -1.5083,1.509766 H 33.13966 c -0.824504,0 -1.496514,-0.664178 -1.507812,-1.489746 l -0.04492,-3.262206 c -0.0194,-1.409986 -1.165752,-2.54297 -2.574218,-2.54297 z m 2.053222,31.416502 c 3.925096,0 7.103026,3.18483 7.103026,7.112306 V 72.05566 H 34.111358 19.905303 V 60.105466 c 0,-3.92569 3.179209,-7.109864 7.104005,-7.109864 z m 37.292478,7.641114 5.59375,14.231932 -2.546386,-0.671874 -3.047364,2.291504 -2.738282,-3.9292 -2.855956,2.30957 z m 12.684082,9.695312 4.993164,8.818358 0.586914,1.036622 -1.106934,0.61328 -2.390626,1.32422 -4.53076,-4.111328 -3.131836,2.173828 z" /></g><style
     type="text/css"
     id="style1">
	.st0{fill:#000000;}
</style></svg>
