<?xml version="1.0" encoding="UTF-8" standalone="no"?>
<!-- Created with Inkscape (http://www.inkscape.org/) -->

<svg
   width="512"
   height="512"
   viewBox="0 0 135.46667 135.46667"
   version="1.1"
   id="svg1"
   xml:space="preserve"
   inkscape:version="1.4 (86a8ad7, 2024-10-11)"
   sodipodi:docname="realmr_logo.svg"
   xmlns:inkscape="http://www.inkscape.org/namespaces/inkscape"
   xmlns:sodipodi="http://sodipodi.sourceforge.net/DTD/sodipodi-0.dtd"
   xmlns="http://www.w3.org/2000/svg"
   xmlns:svg="http://www.w3.org/2000/svg"><sodipodi:namedview
     id="namedview1"
     pagecolor="#505050"
     bordercolor="#ffffff"
     borderopacity="1"
     inkscape:showpageshadow="0"
     inkscape:pageopacity="0"
     inkscape:pagecheckerboard="1"
     inkscape:deskcolor="#505050"
     inkscape:document-units="mm"
     inkscape:zoom="0.70710678"
     inkscape:cx="103.23759"
     inkscape:cy="366.28131"
     inkscape:window-width="1920"
     inkscape:window-height="1009"
     inkscape:window-x="1072"
     inkscape:window-y="421"
     inkscape:window-maximized="1"
     inkscape:current-layer="layer1" /><defs
     id="defs1"><inkscape:path-effect
   effect="powerstroke"
   message=""
   id="path-effect93"
   is_visible="true"
   lpeversion="1.3"
   scale_width="1"
   interpolator_type="CentripetalCatmullRom"
   interpolator_beta="0.2"
   start_linecap_type="zerowidth"
   end_linecap_type="zerowidth"
   offset_points="0.065181975,0.12799713 | 0.50275139,0.18012016 | 0.98296732,0.084561264"
   linejoin_type="round"
   miter_limit="4"
   not_jump="false"
   sort_points="true" /><inkscape:path-effect
   effect="powerstroke"
   message=""
   id="path-effect90"
   is_visible="true"
   lpeversion="1.3"
   scale_width="0.6"
   interpolator_type="CentripetalCatmullRom"
   interpolator_beta="0.2"
   start_linecap_type="zerowidth"
   end_linecap_type="zerowidth"
   offset_points="0.029561899,0.13381594 | 3.993713,0.30172106 | 7.6022103,0.11640397"
   linejoin_type="round"
   miter_limit="4"
   not_jump="false"
   sort_points="true" />
	
	
	

	
	
	
	
	
	
	
</defs><g
     inkscape:label="Layer 1"
     inkscape:groupmode="layer"
     id="layer1"><path
       id="path123"
       style="fill:#ffffff;stroke:none;stroke-width:2;stroke-linecap:round;stroke-dasharray:none;stroke-opacity:1;paint-order:stroke markers fill;fill-opacity:1"
       d="M 79.524862 1.054716 C 79.058977 2.7584127 78.786129 4.5092115 78.711475 6.2740356 C 78.71169 19.272011 89.235259 29.808767 102.2165 29.808516 C 108.31619 29.669209 114.12276 27.160452 118.40879 22.812561 C 108.27217 11.382286 94.56904 3.7145762 79.524862 1.054716 z M 26.411825 22.837882 C 24.906723 22.837882 23.68641 24.059873 23.68641 25.566915 L 23.68641 28.960506 C 23.68641 29.843053 22.972051 30.558341 22.090641 30.558341 L 19.509403 30.558341 C 18.627993 30.558341 17.914152 29.842738 17.914152 28.960506 L 17.914152 25.566915 C 17.914152 24.597624 17.391729 23.771785 16.629993 23.291085 C 5.9091151 35.61527 0.00309168 51.398624 0 67.733333 C 0.04646521 104.56603 29.517249 134.61048 66.342204 135.36693 C 69.259575 132.49477 72.612578 128.70274 77.281071 123.48497 C 82.731749 117.39294 73.985362 117.01272 66.88739 112.06293 C 62.479485 108.98941 61.056662 105.20919 65.366553 99.878658 C 69.138754 95.212917 75.36662 91.525916 80.844678 88.456099 L 86.258818 88.456099 C 82.628455 90.865596 77.691376 94.544121 74.492611 98.102539 C 69.929464 103.17949 72.465093 104.44769 83.619702 107.4937 C 95.241466 110.66766 98.575783 115.10896 97.562004 121.4546 C 97.181322 123.83725 95.728167 126.97692 94.082629 130.01274 C 115.66263 120.88622 130.99325 101.25486 134.61762 78.106344 C 133.21523 77.551902 132.08735 77.062571 131.11861 76.495072 C 129.37773 75.475212 122.11658 68.830462 122.11658 68.257332 C 122.11658 68.116797 122.38695 68.002051 122.71757 68.002051 C 123.82048 68.002051 128.33049 66.792944 130.03186 66.04093 C 131.13918 65.551466 131.68266 65.149195 131.62659 64.861674 C 131.57829 64.614469 130.72447 64.149746 129.65617 63.788871 C 128.61941 63.438662 127.24939 62.884819 126.61139 62.558455 C 125.17982 61.826134 122.39604 58.94537 121.58844 57.360323 L 120.98796 56.1821 L 123.3134 55.723214 C 125.54784 55.282436 127.04651 54.624365 127.04651 54.084554 C 127.04651 53.943773 126.28545 53.554005 125.52412 52.964209 C 117.68449 46.890877 116.62544 42.564327 116.62544 42.564327 C 116.62544 42.564327 117.00156 44.899257 106.60125 53.115104 C 105.87708 53.687172 105.11263 54.162218 105.0649 54.410116 C 104.95822 54.964795 106.86127 55.778128 108.80369 56.008468 C 110.75135 56.239434 110.95317 56.422018 110.416 57.462126 C 109.57172 59.096897 107.29997 61.605016 105.93772 62.40601 C 105.18637 62.847788 103.60259 63.538376 102.41855 63.941317 C 101.23454 64.344238 100.21133 64.837487 100.14479 65.037374 C 99.97366 65.551443 103.22404 66.952167 106.02144 67.570036 C 107.29745 67.851867 108.71507 68.16638 109.17111 68.268184 C 109.99727 68.45264 109.99001 68.463532 107.20328 71.267485 C 102.95761 75.539394 99.78929 77.21697 96.451477 78.744548 C 94.58739 79.597662 93.790501 79.858278 92.399011 80.053512 C 92.523344 80.192584 92.647986 80.331336 92.775732 80.476225 C 93.053417 80.787979 93.392201 81.092568 93.866105 81.38728 C 94.308043 81.66211 94.888235 81.942161 95.703202 82.223922 C 96.476211 82.49116 97.45935 82.760228 98.751595 83.034725 C 99.993648 83.298564 101.51283 83.56516 103.4526 83.852246 C 104.2659 83.979283 105.12084 84.124505 105.95684 84.27651 C 106.02114 84.28999 106.0923 84.311796 106.16665 84.345756 C 106.24165 84.380016 106.31764 84.426176 106.39041 84.487866 C 106.46371 84.549926 106.52767 84.622908 106.57954 84.703874 C 106.63114 84.784474 106.66684 84.866477 106.69116 84.945719 C 106.73866 85.101068 106.74037 85.241529 106.73147 85.341561 C 106.72247 85.442951 106.70059 85.530237 106.67979 85.597359 C 106.63889 85.729046 106.57999 85.847408 106.52838 85.940491 C 106.47388 86.038851 106.41089 86.138056 106.34493 86.234013 C 106.21233 86.426956 106.04709 86.638481 105.86641 86.856197 C 105.6821 87.0783 105.47393 87.316152 105.25456 87.558997 C 104.80657 88.054887 104.29638 88.588637 103.82105 89.07725 C 103.3317 89.580311 102.84127 90.074375 102.48573 90.433757 C 102.46453 90.454977 102.44306 90.475889 102.42166 90.497319 C 100.88718 92.036099 99.125485 93.519969 96.922249 94.927539 C 94.92807 96.201543 92.621016 97.385154 89.756795 98.565043 C 88.628397 99.031163 87.766828 99.390081 87.124398 99.672469 C 86.48097 99.955272 86.087524 100.1479 85.852641 100.29155 C 85.809911 100.31765 85.810971 100.32226 85.783911 100.34116 C 85.786311 100.36456 85.794431 100.40666 85.835071 100.47604 C 85.885031 100.56134 85.984202 100.68928 86.177169 100.85741 C 86.37719 101.03174 86.650108 101.2244 87.007092 101.43774 C 87.383843 101.66288 87.832133 101.89768 88.347062 102.14312 C 90.920818 103.33891 93.827091 104.18044 96.514522 104.775 C 101.17058 105.80507 104.96971 106.09656 106.04366 106.38782 C 106.59845 106.53826 106.5677 106.75776 106.67359 106.83121 C 106.56675 106.89551 106.57739 107.1239 106.00852 107.22653 C 104.90133 107.42633 101.01557 107.45947 96.153304 106.59659 C 93.36188 106.1012 90.270047 105.29771 87.480448 104.05825 C 86.916368 103.81375 86.392811 103.56063 85.930155 103.2986 C 85.495798 103.05259 85.09946 102.78937 84.764335 102.50279 C 84.443701 102.22863 84.155668 101.91383 83.949398 101.54677 C 83.743317 101.18005 83.62592 100.77339 83.629521 100.33806 C 83.631021 100.24026 83.63392 100.08211 83.66001 99.916899 C 83.68849 99.735934 83.74591 99.532063 83.864132 99.324687 C 83.979962 99.121542 84.128818 98.958815 84.288912 98.823942 C 84.444511 98.692831 84.620452 98.580201 84.804126 98.477193 C 85.165464 98.274493 85.664347 98.051449 86.316178 97.779561 C 86.983035 97.501417 87.872975 97.146905 88.999219 96.696423 C 91.787636 95.578432 93.999294 94.471057 95.889237 93.289396 C 97.97357 91.986198 99.637415 90.607046 101.08634 89.159932 C 101.10644 89.139762 101.1268 89.119841 101.1468 89.099471 C 101.50217 88.743536 102.00241 88.24674 102.48315 87.761051 C 102.95704 87.282296 103.45524 86.771224 103.88875 86.30481 C 104.08609 86.092485 104.26354 85.894581 104.42308 85.711047 C 104.00037 85.598314 103.55904 85.486628 103.17096 85.375667 C 101.25865 85.068584 99.708883 84.769513 98.431201 84.469263 C 97.102577 84.157006 96.06433 83.842428 95.228813 83.518933 C 94.344937 83.176705 93.614948 82.908957 93.090442 82.536047 C 91.815107 81.629351 90.782791 80.034597 90.761385 79.994084 L 89.168201 79.910885 L 84.950887 72.462244 C 83.423029 69.763773 79.530332 69.763773 78.002474 72.462244 L 76.585506 74.964417 L 71.768746 62.709351 C 71.747696 62.655601 71.72267 62.604155 71.6995 62.551737 C 70.248101 59.27828 65.617303 59.448966 64.335608 62.709351 L 60.650045 72.085522 C 60.647645 72.397422 60.647711 72.76625 60.645911 73.065308 C 60.613361 78.223039 60.747505 87.253397 60.147233 88.905684 C 60.019761 89.256558 59.779955 89.373767 59.706433 89.467407 C 59.632903 89.373767 59.392588 89.256558 59.265116 88.905684 C 58.787579 87.591218 58.783019 81.830129 58.745251 76.933289 L 58.709078 44.446383 L 58.744218 44.446383 L 64.467383 36.791036 L 64.467383 30.558341 L 64.467383 25.566915 C 64.467383 24.059873 63.24707 22.837882 61.741968 22.837882 L 57.485897 22.837882 C 55.980795 22.837882 54.760482 24.059873 54.760482 25.566915 L 54.760482 28.960506 C 54.760482 29.843053 54.046326 30.558341 53.16523 30.558341 L 50.583993 30.558341 C 49.702582 30.558341 48.988224 29.842738 48.988224 28.960506 L 48.988224 25.566915 C 48.988224 24.059873 47.767909 22.837882 46.262809 22.837882 L 41.995886 22.837882 C 40.490784 22.837882 39.270988 24.059873 39.270988 25.566915 L 39.270988 28.960506 C 39.270988 29.843053 38.555801 30.558341 37.674703 30.558341 L 35.072795 30.558341 C 34.200195 30.558341 33.488983 29.85542 33.477026 28.981694 L 33.429484 25.529191 C 33.409034 24.036956 32.195731 22.837882 30.705103 22.837882 L 26.411825 22.837882 z M 28.584819 56.087016 C 32.738878 56.087016 36.102189 59.457626 36.102189 63.614205 L 36.102189 76.258911 L 36.101156 76.258911 L 21.066414 76.258911 L 21.066414 63.611621 C 21.066414 59.456933 24.431076 56.087016 28.584819 56.087016 z M 68.052694 64.173861 L 73.972746 79.23599 L 71.27782 78.524923 L 68.052694 80.950098 L 65.154679 76.791695 L 62.132125 79.23599 L 68.052694 64.173861 z M 81.476681 74.434733 L 86.761112 83.767497 L 87.382263 84.864587 L 86.210758 85.513643 L 83.68068 86.915108 L 78.885624 82.563953 L 75.571098 84.864587 L 81.476681 74.434733 z " /></g><style
     type="text/css"
     id="style1">
	.st0{fill:#000000;}
</style></svg>
