<?xml version="1.0" encoding="UTF-8" standalone="no"?>
<!-- Created with Inkscape (http://www.inkscape.org/) -->

<svg
   width="512"
   height="512"
   viewBox="0 0 135.46666 135.46667"
   version="1.1"
   id="svg1"
   xml:space="preserve"
   inkscape:version="1.3 (0e150ed6c4, 2023-07-21)"
   sodipodi:docname="SessionManagerLogo.svg"
   xmlns:inkscape="http://www.inkscape.org/namespaces/inkscape"
   xmlns:sodipodi="http://sodipodi.sourceforge.net/DTD/sodipodi-0.dtd"
   xmlns="http://www.w3.org/2000/svg"
   xmlns:svg="http://www.w3.org/2000/svg"><sodipodi:namedview
     id="namedview1"
     pagecolor="#505050"
     bordercolor="#ffffff"
     borderopacity="1"
     inkscape:showpageshadow="0"
     inkscape:pageopacity="0"
     inkscape:pagecheckerboard="1"
     inkscape:deskcolor="#d1d1d1"
     inkscape:document-units="px"
     inkscape:zoom="1.5144501"
     inkscape:cx="372.41241"
     inkscape:cy="214.59935"
     inkscape:window-width="1920"
     inkscape:window-height="1009"
     inkscape:window-x="1912"
     inkscape:window-y="-8"
     inkscape:window-maximized="1"
     inkscape:current-layer="layer1" /><defs
     id="defs1"><inkscape:path-effect
       effect="fillet_chamfer"
       id="path-effect21"
       is_visible="true"
       lpeversion="1"
       nodesatellites_param="F,0,0,1,0,7.5,0,1 @ F,0,0,1,0,7.5,0,1 @ F,0,0,1,0,7.5,0,1 @ F,0,0,1,0,7.5,0,1"
       radius="7.5"
       unit="px"
       method="auto"
       mode="F"
       chamfer_steps="1"
       flexible="false"
       use_knot_distance="true"
       apply_no_radius="true"
       apply_with_radius="true"
       only_selected="false"
       hide_knots="false" /><inkscape:path-effect
       effect="fillet_chamfer"
       id="path-effect20"
       is_visible="true"
       lpeversion="1"
       nodesatellites_param="F,0,0,1,0,7.5,0,1 @ F,0,0,1,0,7.5,0,1 @ F,0,0,1,0,7.5,0,1 @ F,0,0,1,0,7.5,0,1 @ F,0,0,1,0,7.5,0,1 | F,0,0,1,0,7.5,0,1 @ F,0,0,1,0,7.5,0,1 @ F,0,0,1,0,7.5,0,1 @ F,0,0,1,0,7.5,0,1 | F,0,0,1,0,7.5,0,1 @ F,0,0,1,0,7.5,0,1 @ F,0,0,1,0,7.5,0,1 @ F,0,0,1,0,7.5,0,1 | F,0,0,1,0,7.5,0,1 @ F,0,0,1,0,7.5,0,1 @ F,0,0,1,0,7.5,0,1 @ F,0,0,1,0,7.5,0,1 | F,0,0,1,0,7.5,0,1 @ F,0,0,1,0,7.5,0,1 @ F,0,0,1,0,7.5,0,1 @ F,0,0,1,0,7.5,0,1 | F,0,0,1,0,7.5,0,1 @ F,0,0,1,0,7.5,0,1 @ F,0,0,1,0,7.5,0,1 @ F,0,0,1,0,7.5,0,1 | F,0,0,1,0,7.5,0,1 @ F,0,0,1,0,7.5,0,1 @ F,0,0,1,0,7.5,0,1 @ F,0,0,1,0,7.5,0,1 | F,0,0,1,0,7.5,0,1 @ F,0,0,1,0,7.5,0,1 @ F,0,0,1,0,7.5,0,1 @ F,0,0,1,0,7.5,0,1 | F,0,0,1,0,7.5,0,1 @ F,0,0,1,0,7.5,0,1 @ F,0,0,1,0,7.5,0,1 @ F,0,0,1,0,7.5,0,1"
       radius="7.5"
       unit="px"
       method="auto"
       mode="F"
       chamfer_steps="1"
       flexible="false"
       use_knot_distance="true"
       apply_no_radius="true"
       apply_with_radius="true"
       only_selected="false"
       hide_knots="false" /><inkscape:path-effect
       effect="fillet_chamfer"
       id="path-effect19"
       is_visible="true"
       lpeversion="1"
       nodesatellites_param="F,0,1,1,0,0,0,1 @ F,0,1,1,0,0,0,1 @ F,0,1,1,0,0,0,1 @ F,0,1,1,0,0,0,1 @ F,0,1,1,0,0,0,1 | F,0,1,1,0,0,0,1 @ F,0,1,1,0,0,0,1 @ F,0,1,1,0,0,0,1 @ F,0,1,1,0,0,0,1 | F,0,1,1,0,0,0,1 @ F,0,1,1,0,0,0,1 @ F,0,1,1,0,0,0,1 @ F,0,1,1,0,0,0,1 | F,0,1,1,0,0,0,1 @ F,0,1,1,0,0,0,1 @ F,0,1,1,0,0,0,1 @ F,0,1,1,0,0,0,1 | F,0,1,1,0,0,0,1 @ F,0,1,1,0,0,0,1 @ F,0,1,1,0,0,0,1 @ F,0,1,1,0,0,0,1 | F,0,1,1,0,0,0,1 @ F,0,1,1,0,0,0,1 @ F,0,1,1,0,0,0,1 @ F,0,1,1,0,0,0,1 | F,0,1,1,0,0,0,1 @ F,0,1,1,0,0,0,1 @ F,0,1,1,0,0,0,1 @ F,0,1,1,0,0,0,1 | F,0,1,1,0,0,0,1 @ F,0,1,1,0,0,0,1 @ F,0,1,1,0,0,0,1 @ F,0,1,1,0,0,0,1 | F,0,1,1,0,0,0,1 @ F,0,1,1,0,0,0,1 @ F,0,1,1,0,0,0,1 @ F,0,1,1,0,0,0,1"
       radius="0"
       unit="px"
       method="auto"
       mode="F"
       chamfer_steps="1"
       flexible="false"
       use_knot_distance="true"
       apply_no_radius="true"
       apply_with_radius="true"
       only_selected="false"
       hide_knots="false" /><inkscape:path-effect
       effect="fillet_chamfer"
       id="path-effect17"
       is_visible="true"
       lpeversion="1"
       nodesatellites_param="F,0,1,1,0,6.4461865,0,1 @ F,0,1,1,0,6.4461865,0,1 @ F,0,1,1,0,6.4461865,0,1 @ F,0,1,1,0,6.4461865,0,1 @ F,0,1,1,0,6.4461865,0,1 | F,0,1,1,0,6.4461865,0,1 @ F,0,1,1,0,6.4461865,0,1 @ F,0,1,1,0,6.4461865,0,1 @ F,0,1,1,0,6.4461865,0,1 | F,0,1,1,0,6.4461865,0,1 @ F,0,1,1,0,6.4461865,0,1 @ F,0,1,1,0,6.4461865,0,1 @ F,0,1,1,0,6.4461865,0,1 | F,0,1,1,0,6.4461865,0,1 @ F,0,1,1,0,6.4461865,0,1 @ F,0,1,1,0,6.4461865,0,1 @ F,0,1,1,0,6.4461865,0,1 | F,0,1,1,0,6.4461865,0,1 @ F,0,1,1,0,6.4461865,0,1 @ F,0,1,1,0,6.4461865,0,1 @ F,0,1,1,0,6.4461865,0,1 | F,0,1,1,0,6.4461865,0,1 @ F,0,1,1,0,6.4461865,0,1 @ F,0,1,1,0,6.4461865,0,1 @ F,0,1,1,0,6.4461865,0,1 | F,0,1,1,0,6.4461865,0,1 @ F,0,1,1,0,6.4461865,0,1 @ F,0,1,1,0,6.4461865,0,1 @ F,0,1,1,0,6.4461865,0,1 | F,0,1,1,0,6.4461865,0,1 @ F,0,1,1,0,6.4461865,0,1 @ F,0,1,1,0,6.4461865,0,1 @ F,0,1,1,0,6.4461865,0,1 | F,0,0,1,0,6.4461865,0,1 @ F,0,1,1,0,6.4461865,0,1 @ F,0,1,1,0,6.4461865,0,1 @ F,0,1,1,0,6.4461865,0,1"
       radius="0"
       unit="px"
       method="auto"
       mode="F"
       chamfer_steps="1"
       flexible="false"
       use_knot_distance="true"
       apply_no_radius="true"
       apply_with_radius="true"
       only_selected="false"
       hide_knots="false" /><inkscape:path-effect
       effect="fillet_chamfer"
       id="path-effect16"
       is_visible="true"
       lpeversion="1"
       nodesatellites_param="F,0,1,1,0,5.4847683,0,1 @ F,0,1,1,0,5.4847683,0,1 @ F,0,1,1,0,5.4847683,0,1 @ F,0,1,1,0,5.4847683,0,1 @ F,0,1,1,0,5.4847683,0,1 | F,0,1,1,0,5.4847683,0,1 @ F,0,1,1,0,5.4847683,0,1 @ F,0,1,1,0,5.4847683,0,1 @ F,0,1,1,0,5.4847683,0,1 @ F,0,1,1,0,5.4847683,0,1 | F,0,1,1,0,5.4847683,0,1 @ F,0,1,1,0,5.4847683,0,1 @ F,0,1,1,0,5.4847683,0,1 @ F,0,1,1,0,5.4847683,0,1 | F,0,1,1,0,5.4847683,0,1 @ F,0,1,1,0,5.4847683,0,1 @ F,0,1,1,0,5.4847683,0,1 @ F,0,1,1,0,5.4847683,0,1 | F,0,1,1,0,5.4847683,0,1 @ F,0,1,1,0,5.4847683,0,1 @ F,0,1,1,0,5.4847683,0,1 @ F,0,1,1,0,5.4847683,0,1 @ F,0,1,1,0,5.4847683,0,1 | F,0,1,1,0,5.4847683,0,1 @ F,0,1,1,0,5.4847683,0,1 @ F,0,1,1,0,5.4847683,0,1 @ F,0,1,1,0,5.4847683,0,1 | F,0,1,1,0,5.4847683,0,1 @ F,0,1,1,0,5.4847683,0,1 @ F,0,1,1,0,5.4847683,0,1 @ F,0,1,1,0,5.4847683,0,1 @ F,0,1,1,0,5.4847683,0,1 | F,0,1,1,0,5.4847683,0,1 @ F,0,1,1,0,5.4847683,0,1 @ F,0,1,1,0,5.4847683,0,1 @ F,0,1,1,0,5.4847683,0,1 | F,0,1,1,0,5.4847683,0,1 @ F,0,1,1,0,5.4847683,0,1 @ F,0,1,1,0,5.4847683,0,1 @ F,0,1,1,0,5.4847683,0,1"
       radius="0"
       unit="px"
       method="auto"
       mode="F"
       chamfer_steps="1"
       flexible="false"
       use_knot_distance="true"
       apply_no_radius="true"
       apply_with_radius="true"
       only_selected="false"
       hide_knots="false" /></defs><g
     inkscape:label="Layer 1"
     inkscape:groupmode="layer"
     id="layer1"><g
       id="g23"
       transform="matrix(0.92865883,0,0,0.92865883,4.832176,3.835591)"><g
         id="g22"><path
           id="path25"
           style="color:#000000;fill:#ffffff;stroke-linecap:round;stroke-linejoin:round;-inkscape-stroke:none;paint-order:markers stroke fill"
           d="M 67.732219 43.712775 C 65.0462 43.712775 62.362172 44.503797 60.046908 46.082195 L 7.2463555 82.07645 C 2.8019937 85.106328 2.8020102 91.86857 7.2463555 94.898472 L 60.046908 130.89273 C 64.677421 134.04954 70.789242 134.04954 75.419756 130.89273 L 128.21864 94.898472 C 132.66298 91.86857 132.663 85.106328 128.21864 82.07645 L 75.419756 46.082195 C 73.104491 44.503797 70.418237 43.712775 67.732219 43.712775 z " /><path
           id="rect4"
           style="display:inline;fill:#080808;fill-opacity:1;stroke:none;stroke-width:6.32894;stroke-linecap:round;stroke-linejoin:round;stroke-dasharray:none;paint-order:markers stroke fill"
           d="m -5.6060813,80.082104 -9.9670557,-4e-6 a 4.4820852,4.4820852 177.82834 0 0 -7.391269,0.280283 l 0.811614,16.876095 a 8.2580258,8.2580258 45.000664 0 0 7.85161,7.851792 l 8.7039777,0.4188 a 7.1477504,7.1477504 136.37712 0 0 7.4912721,-7.13955 l -8.79e-5,-10.787414 a 7.5000636,7.5000636 44.999776 0 0 -7.5000612,-7.500002 z m -27.6201477,-6.3e-5 -6.835296,-7.9e-5 a 7.3179026,7.3179026 134.29659 0 0 -7.315779,7.49765 l 0.207374,8.440121 a 8.0656541,8.0656541 45.673724 0 0 7.675553,7.858217 l 6.583768,0.31681 a 7.058563,7.058563 136.01817 0 0 7.397271,-7.13893 l -0.11883,-9.474292 a 7.594746,7.594746 44.641037 0 0 -7.594061,-7.499497 z m 27.6288871,28.320609 -8.5644151,-0.41182 a 6.8117347,6.8117347 134.99965 0 0 -7.131033,7.13112 l 0.359791,7.4805 a 8.0658536,8.0658536 44.328276 0 0 7.858039,7.67591 l 7.4715671,0.18394 a 7.3175302,7.3175302 135.70466 0 0 7.4976143,-7.31543 l -1.047e-4,-6.884 a 7.8694222,7.8694222 46.376034 0 0 -7.4914586,-7.86022 z M -58.647371,80.082074 -69.507297,80.08197 a 7.4999871,7.4999871 135.0005 0 0 -7.500059,7.499928 l -5.5e-5,6.990832 a 7.8695263,7.8695263 46.377736 0 0 7.491272,7.86049 l 11.449927,0.55099 a 6.9737268,6.9737268 135.67263 0 0 7.306812,-7.13724 l -0.203452,-8.267094 a 7.6869191,7.6869191 44.295394 0 0 -7.684519,-7.497802 z m 53.0424355,53.851216 -7.2960515,-0.12345 a 7.0278171,7.0278171 134.10777 0 0 -7.138594,7.36446 l 0.496287,10.31786 a 7.8693528,7.8693528 43.622856 0 0 7.860333,7.49128 l 6.0770877,-6e-5 a 7.5000233,7.5000233 134.9996 0 0 7.4999592,-7.50006 l -5.39e-5,-9.92315 a 7.628014,7.628014 45.484517 0 0 -7.4989675,-7.62688 z m -27.1662675,-26.83757 -6.651656,-0.31992 a 6.9738967,6.9738967 135.67192 0 0 -7.30682,7.13742 l 0.198062,8.04795 a 7.8787146,7.8787146 45.000901 0 0 7.682244,7.68249 l 7.156092,0.17633 a 6.9737427,6.9737427 134.32925 0 0 7.137486,-7.30658 l -0.36383,-7.56604 a 8.2578249,8.2578249 45.00027 0 0 -7.851578,-7.85165 z m -25.223513,-1.21323 -11.521204,-0.55401 a 7.1480798,7.1480798 136.37675 0 0 -7.491407,7.13977 l -7.4e-5,8.89716 a 7.6411822,7.6411822 45.534712 0 0 7.498632,7.63992 l 12.075676,0.22531 a 7.1824218,7.1824218 134.82984 0 0 7.314241,-7.35781 l -0.200066,-8.13238 a 8.0656349,8.0656349 45.671874 0 0 -7.675798,-7.85796 z m 26.474198,27.52711 -7.240341,-0.178 a 7.1399593,7.1399593 134.99947 0 0 -7.313274,7.31341 l 0.26917,10.94086 a 7.6868268,7.6868268 44.29549 0 0 7.684461,7.49777 l 7.818608,4e-5 a 7.1479847,7.1479847 133.62365 0 0 7.139773,-7.4913 l -0.500435,-10.40712 a 8.0654908,8.0654908 44.327635 0 0 -7.857962,-7.67566 z m -25.823419,-0.6355 -12.165705,-0.29942 a 7.3177323,7.3177323 135.70512 0 0 -7.497779,7.31547 l -7.8e-5,11.69342 a 7.4999101,7.4999101 45.000034 0 0 7.499951,7.49996 l 12.801658,-7e-5 a 7.3177784,7.3177784 134.29513 0 0 7.315525,-7.49777 l -0.271367,-11.02933 a 7.8784303,7.8784303 45.000215 0 0 -7.682205,-7.68226 z"
           transform="matrix(0.82625783,-0.56329211,0.82625783,0.56329211,0,0)"
           sodipodi:nodetypes="cccccccccccccccccccccccccccccccccccccccccccccc"
           inkscape:path-effect="#path-effect20"
           inkscape:original-d="m 1.8939187,80.082106 -24.9670557,-8e-6 0.108731,0.280285 1.171891,24.367437 23.686644,1.1397 z m -27.6201477,2.2e-5 -21.835296,-2.53e-4 0.575816,23.435595 21.566432,1.03777 z m 27.6202315,28.680742 -23.5471035,-1.13226 1.080413,22.46318 22.4670236,0.55308 z m -53.0413735,-28.680724 -25.859926,-2.48e-4 -1.73e-4,21.990832 26.432589,1.27197 z m 53.0413622,53.978024 -22.2939052,-0.37721 1.216953,25.30054 21.0770877,-1.8e-4 z m -27.1738542,-26.60414 -21.634336,-1.04054 0.567102,23.04341 22.15154,0.54585 z m -25.223509,-1.21331 -26.503892,-1.27447 -2e-4,23.89716 27.073066,0.50515 z m 26.480589,27.3512 -22.235811,-0.54664 0.638092,25.93632 22.818608,1.2e-4 z m -25.823424,-0.63529 -27.161165,-0.66848 -1.76e-4,26.69342 27.801658,-1.5e-4 z" /></g><g
         id="g21"><path
           id="path24"
           style="color:#000000;fill:#ffffff;stroke-linecap:round;stroke-linejoin:round;-inkscape-stroke:none;paint-order:markers stroke fill"
           d="M 84.804505 4.351362 C 83.854418 4.351362 83.645583 4.7819159 83.486244 4.9590196 C 83.326905 5.1361232 83.249474 5.2652045 83.174068 5.3947302 C 83.023256 5.6537816 82.912745 5.9070359 82.806802 6.18769 C 82.594915 6.7489983 82.393984 7.3322419 82.41227 8.1386494 C 82.42097 8.5224331 82.363917 8.6056165 82.367197 8.5994008 C 82.370497 8.5931808 82.402847 8.5767436 82.261469 8.6795315 C 81.97872 8.8851083 80.800356 9.6165773 80.486352 10.986071 C 80.195587 12.254203 80.455365 13.33811 80.615451 14.245831 C 80.775542 15.153552 80.825368 15.88308 80.769591 16.09941 C 80.682141 16.438573 80.350245 16.977685 79.919872 17.60965 C 79.489499 18.241616 78.824965 18.965566 78.859254 20.292915 C 78.880454 21.114131 79.272744 21.674302 79.568188 22.048556 C 79.863632 22.42281 80.134842 22.692927 80.361147 22.961155 C 80.813759 23.497615 81.099759 23.900315 81.126841 24.76966 C 81.20077 27.142408 80.922133 34.601133 80.914272 34.810479 C 80.908572 34.820079 80.911806 34.829567 80.902586 34.845537 C 80.673793 34.729596 80.261759 34.501563 79.550937 33.71703 C 78.777044 32.862883 78.464801 32.376589 78.30446 32.093827 C 78.50902 31.752131 78.665475 31.093459 78.543183 30.603619 C 78.418315 30.103461 78.187284 29.81371 77.962792 29.554686 C 76.505322 27.873039 75.443526 28.122206 75.630655 24.838105 C 75.753016 22.690772 75.474266 20.530927 74.400315 18.763755 C 73.326364 16.996581 71.18452 15.790858 68.704916 16.082159 C 66.306024 16.363978 64.584195 17.625696 63.603263 18.988009 C 62.622331 20.350324 62.269421 21.674044 62.269421 22.767506 C 62.269421 23.702902 62.586407 24.456995 62.7541 24.83421 C 62.877813 25.112493 62.852802 25.054246 62.849812 25.0529 C 62.60899 25.252019 62.078237 25.6672 61.720748 26.417904 C 61.361657 27.171974 61.320152 27.947729 61.32399 28.306539 C 61.32539 28.434266 61.323216 28.361576 61.326216 28.388896 C 61.286356 28.425066 61.278627 28.445542 61.220488 28.480712 C 60.935046 28.653385 60.492863 28.884372 60.01185 29.146242 C 59.049825 29.669983 57.856108 30.115137 57.119356 31.570195 C 56.904493 31.994534 56.813942 32.316417 56.633007 32.871206 C 56.452073 33.425994 56.236156 34.127767 55.994187 34.937353 C 55.510248 36.556526 54.92378 38.605924 54.330363 40.693407 C 53.143528 44.868374 51.904143 49.285682 51.531354 50.42205 C 50.829631 52.561122 48.690156 56.216023 43.185521 57.711159 C 40.271329 58.502694 37.948126 58.785583 36.179651 58.943169 C 35.295415 59.021959 34.553262 59.067153 33.904274 59.134592 C 33.255285 59.202032 32.716139 59.227634 32.019534 59.592005 C 31.688804 59.764994 31.381777 59.936189 31.052957 60.236389 C 30.724138 60.536588 30.239695 61.138805 30.322321 61.99203 C 30.404951 62.845255 30.964095 63.328607 31.359568 63.587966 C 31.755042 63.847323 32.143261 64.000321 32.61328 64.15834 C 34.114298 64.662978 37.567795 66.020235 40.261864 66.339675 C 40.549231 66.373745 40.619989 66.378475 40.892893 66.404225 C 40.214277 67.220118 39.490285 68.091374 38.728809 68.927785 C 38.221003 69.485561 37.738846 69.996607 37.353788 70.379041 C 36.96873 70.761475 36.57564 71.055757 36.708848 70.974456 C 36.241514 71.259682 35.594447 71.409423 35.134614 72.582078 C 34.904696 73.168406 35.068959 74.19167 35.51746 74.697194 C 35.965966 75.202716 36.429226 75.383464 36.935328 75.552477 C 38.022222 75.91545 39.29601 75.999173 40.730406 75.927534 C 42.164802 75.855894 43.709165 75.601794 45.115335 75.031072 C 46.526927 74.45815 47.72154 73.62268 48.628843 73.181388 C 48.848967 73.074325 48.941662 73.07046 49.107401 73.013893 C 48.877105 73.469885 48.612671 73.971141 48.165865 74.656015 C 47.004226 76.436603 45.384278 78.549533 44.874943 80.945161 C 44.607083 82.20502 44.749948 83.71652 45.283387 85.308387 C 45.065773 85.322397 44.733105 85.343811 44.732488 85.344001 C 44.731641 85.344258 44.174614 85.639939 44.173799 85.640596 C 44.172984 85.641253 43.947824 85.855524 43.8811 85.945538 C 43.81438 86.035548 43.770129 86.112074 43.736419 86.177583 C 43.669 86.308602 43.639207 86.399314 43.617336 86.472508 C 43.529866 86.765286 43.543995 86.84851 43.538875 86.957187 C 43.528635 87.174543 43.539781 87.355971 43.562803 87.583765 C 43.608843 88.039353 43.715098 88.629287 43.923947 89.336067 C 44.341647 90.74963 45.176564 92.619045 46.775264 94.507834 C 49.972664 98.285414 56.185332 102.00504 67.60924 102.48251 C 74.899826 102.78722 81.080158 100.62609 85.404372 97.564486 C 89.728586 94.502881 92.425633 90.553832 91.978426 86.716795 C 91.444314 82.134214 89.198694 79.138794 87.238474 76.777253 C 85.278255 74.415711 83.732512 72.704984 83.466768 70.304475 C 83.403668 69.734484 83.369296 69.397877 83.333773 69.042973 C 83.705213 69.059103 84.054485 69.081166 84.447256 69.007916 C 84.94408 68.915266 85.662146 68.570452 86.027611 67.972894 C 86.393075 67.375337 86.384231 66.864205 86.377069 66.47267 C 86.369869 66.081135 86.328208 65.73294 86.290818 65.326356 C 86.146785 63.76003 86.268074 63.258308 86.219034 62.003715 C 86.120634 59.485921 85.66946 58.188952 85.302539 57.447396 C 84.935619 56.705839 84.918517 57.081042 84.980347 56.084061 C 85.146727 53.401229 85.293079 44.054443 85.293079 44.054443 A 1.6538104 1.6538104 0 0 0 85.293079 44.029403 C 85.293079 44.029403 85.246299 43.350067 86.044861 42.767344 C 86.73347 42.264862 87.285394 41.95177 87.83222 41.284927 C 88.379047 40.618085 88.61739 39.651628 88.61739 38.763593 C 88.61739 37.062303 87.693411 36.21915 87.083777 35.271231 C 86.474145 34.323313 86.099602 33.449267 86.105515 33.138864 C 86.144195 31.110731 86.236999 24.725956 86.23851 24.623311 C 86.23741 24.620611 86.110181 24.305258 86.89458 23.90436 C 87.442596 23.624271 87.942569 23.238715 88.27906 22.691271 C 88.61555 22.143826 88.705672 21.496255 88.668028 21.015761 C 88.592738 20.054771 88.292155 19.538431 88.222857 19.215046 C 88.067543 18.490288 87.734562 17.331855 87.445478 16.078264 C 87.156396 14.824673 86.966994 13.440738 86.998082 13.052775 C 87.138383 11.301849 87.166134 9.9999279 87.166134 8.3534442 C 87.166134 7.5345782 87.004687 6.8108004 86.798868 6.2110614 C 86.695924 5.911188 86.587448 5.6499431 86.429933 5.3791492 C 86.351176 5.2437523 86.267358 5.1060736 86.095499 4.9239624 C 85.92364 4.7418513 85.655477 4.351362 84.804505 4.351362 z " /><path
           id="path4"
           style="display:inline;opacity:1;fill:#080808;fill-opacity:1;stroke:none;stroke-width:3.90222;stroke-linecap:round;stroke-linejoin:round;stroke-dasharray:none;paint-order:markers stroke fill"
           d="m 84.804745,6.0056107 c -0.1999,0 -0.75723,1.341966 -0.74015,2.095177 0.0526,2.3192063 -1.61206,1.7052174 -1.96733,3.2546843 -0.35527,1.549465 0.65563,3.672797 0.27304,5.156677 -0.3826,1.48388 -1.88536,2.680676 -1.85804,3.738247 0.0273,1.057574 2.18622,1.836601 2.2682,4.468233 0.082,2.631635 -0.21859,10.296819 -0.21859,10.296819 0,0 -0.57395,3.853385 -4.23593,-0.188344 -3.66198,-4.041728 -0.54662,-2.959814 -1.61242,-4.189548 -1.0658,-1.229735 -2.95143,-2.057554 -2.73281,-5.894325 0.21863,-3.836773 -1.17533,-7.477038 -5.08327,-7.017936 -3.90794,0.4591 -4.97358,3.804205 -4.97358,5.042137 0,1.237933 0.71065,1.63137 0.60133,2.55777 -0.10931,0.926401 -0.84737,0.827998 -1.31195,1.803587 -0.46458,0.975589 -0.0272,1.401839 -0.40976,2.156077 -0.3826,0.754238 -3.55263,1.737949 -4.2085,3.033268 -0.65588,1.29532 -4.64586,16.035797 -5.49304,18.61824 -0.84717,2.582443 -3.41608,6.72278 -9.48294,8.370626 -6.06688,1.647845 -9.76775,1.192751 -10.83355,1.750233 -1.06581,0.557479 -1.22973,1.000485 0.35531,1.533371 1.58504,0.532885 5.04699,1.838629 7.3149,2.107539 1.45381,0.172381 4.01042,-0.05417 2.45271,1.897008 -1.55771,1.95118 -4.54634,5.307228 -5.33886,5.790925 -0.79252,0.483695 -1.55769,1.115011 -0.10929,1.598707 1.44839,0.483695 4.71024,0.456158 7.03314,-0.486638 2.32291,-0.942796 4.67327,-3.221784 6.31296,-1.934661 1.6397,1.287121 -3.54817,6.125905 -4.31336,9.724931 -0.76519,3.599017 3.2799,14.158481 20.7973,14.158481 17.51741,0 20.42748,-7.931836 20.42748,-7.931836 0,0 -2.81494,10.678246 -20.16837,10.678246 -16.47894,0 -22.32769,-11.26365 -22.32769,-11.26365 -0.23681,-0.246278 0.26226,12.97335 22.45622,13.900974 13.84914,0.57883 23.3189,-8.245904 22.65738,-13.921742 -0.96762,-8.301999 -7.84805,-10.423059 -8.51227,-16.423039 -0.34783,-3.141987 -0.46343,-3.189093 1.31437,-3.083681 1.77846,0.105452 1.66175,-0.24344 1.50716,-1.924579 -0.15459,-1.681135 0.0771,-2.30731 -0.0774,-3.408746 -0.15459,-1.101435 -1.39113,-3.594384 -1.23654,-6.087104 0.15459,-2.492723 0.30894,-11.953198 0.30894,-11.953198 0,0 1.5e-4,-1.55383 1.43012,-2.597294 1.42998,-1.043465 1.89393,-1.252187 1.89393,-2.666662 0,-1.414474 -2.55085,-3.629027 -2.5122,-5.657987 0.0387,-2.028959 0.13511,-8.576313 0.13511,-8.576313 0,0 0.0794,-1.344971 1.55515,-2.09921 1.47572,-0.754237 0.71056,-1.721369 0.46461,-2.869123 -0.24596,-1.147752 -1.39375,-4.935612 -1.25711,-6.640845 0.13664,-1.705232 0.16415,-2.9391859 0.16415,-4.5670423 0,-1.150268 -0.50862,-2.348454 -0.70852,-2.348454 z m -4.84671,36.7658743 c 1.43431,-0.117907 2.03379,0.845333 1.9811,1.64193 l -0.18123,8.064044 c 0,0 -0.0158,1.343531 -0.46818,1.343531 -0.51422,0 -0.72596,-0.655801 -2.14628,-4.864447 -1.37593,-4.077123 -1.07545,-6.029688 0.81459,-6.185058 z m -31.28978,41.748521 c 0,0 4.94567,7.14417 18.80336,7.14417 10.67394,0 15.6741,-2.106474 15.6741,-2.106474 0,0 -4.97724,3.637834 -15.61038,3.637834 -14.85536,0 -18.86708,-8.67553 -18.86708,-8.67553 z"
           sodipodi:nodetypes="zssssscssssssssssssssssssssscscssssssscssscsssszccssscscscs" /></g></g></g></svg>
