<?xml version="1.0" encoding="UTF-8" standalone="no"?>
<svg
   width="240"
   height="240"
   fill="none"
   viewBox="0 0 24 24"
   version="1.1"
   id="svg2"
   sodipodi:docname="upload.svg"
   xml:space="preserve"
   inkscape:version="1.4 (86a8ad7, 2024-10-11)"
   xmlns:inkscape="http://www.inkscape.org/namespaces/inkscape"
   xmlns:sodipodi="http://sodipodi.sourceforge.net/DTD/sodipodi-0.dtd"
   xmlns="http://www.w3.org/2000/svg"
   xmlns:svg="http://www.w3.org/2000/svg"><defs
     id="defs2" /><sodipodi:namedview
     id="namedview2"
     pagecolor="#505050"
     bordercolor="#ffffff"
     borderopacity="1"
     inkscape:showpageshadow="0"
     inkscape:pageopacity="0"
     inkscape:pagecheckerboard="1"
     inkscape:deskcolor="#505050"
     inkscape:zoom="1.0507813"
     inkscape:cx="34.260223"
     inkscape:cy="124.19331"
     inkscape:window-width="1920"
     inkscape:window-height="1009"
     inkscape:window-x="1072"
     inkscape:window-y="421"
     inkscape:window-maximized="1"
     inkscape:current-layer="svg2" /><path
     d="m 12,7 a 0.75,0.75 0 0 1 0.75,0.75 v 3.5 h 3.5 a 0.75,0.75 0 0 1 0,1.5 h -3.5 v 3.5 a 0.75,0.75 0 0 1 -1.5,0 v -3.5 h -3.5 a 0.75,0.75 0 0 1 0,-1.5 h 3.5 V 7.75 A 0.75,0.75 0 0 1 12,7 Z"
     fill="#212121"
     id="path1"
     style="fill:#ffffff;fill-opacity:0.5" /><path
     d="M 3,6.25 A 3.25,3.25 0 0 1 6.25,3 h 11.5 A 3.25,3.25 0 0 1 21,6.25 v 11.5 A 3.25,3.25 0 0 1 17.75,21 H 6.25 A 3.25,3.25 0 0 1 3,17.75 Z M 6.25,4.5 A 1.75,1.75 0 0 0 4.5,6.25 v 11.5 c 0,0.966 0.784,1.75 1.75,1.75 h 11.5 A 1.75,1.75 0 0 0 19.5,17.75 V 6.25 A 1.75,1.75 0 0 0 17.75,4.5 Z"
     fill="#212121"
     id="path2"
     style="fill:#ffffff;fill-opacity:0.5" /></svg>
