<?xml version="1.0" encoding="UTF-8" standalone="no"?>
<svg
   width="90"
   height="90"
   fill="none"
   viewBox="0 0 25 25"
   version="1.1"
   id="svg1"
   sodipodi:docname="add_LARGE.svg"
   inkscape:version="1.4 (86a8ad7, 2024-10-11)"
   xmlns:inkscape="http://www.inkscape.org/namespaces/inkscape"
   xmlns:sodipodi="http://sodipodi.sourceforge.net/DTD/sodipodi-0.dtd"
   xmlns="http://www.w3.org/2000/svg"
   xmlns:svg="http://www.w3.org/2000/svg">
  <defs
     id="defs1" />
  <sodipodi:namedview
     id="namedview1"
     pagecolor="#505050"
     bordercolor="#ffffff"
     borderopacity="1"
     inkscape:showpageshadow="0"
     inkscape:pageopacity="0"
     inkscape:pagecheckerboard="1"
     inkscape:deskcolor="#d1d1d1"
     inkscape:zoom="3.1304207"
     inkscape:cx="36.736277"
     inkscape:cy="52.069679"
     inkscape:window-width="1920"
     inkscape:window-height="1009"
     inkscape:window-x="1072"
     inkscape:window-y="421"
     inkscape:window-maximized="1"
     inkscape:current-layer="svg1" />
  <path
     d="M 3,6.25 A 3.25,3.25 0 0 1 6.25,3 h 11.5 A 3.25,3.25 0 0 1 21,6.25 v 11.5 A 3.25,3.25 0 0 1 17.75,21 H 6.25 A 3.25,3.25 0 0 1 3,17.75 Z m 9.75,1.5 a 0.75,0.75 0 0 0 -1.5,0 v 3.5 h -3.5 a 0.75,0.75 0 0 0 0,1.5 h 3.5 v 3.5 a 0.75,0.75 0 0 0 1.5,0 v -3.5 h 3.5 a 0.75,0.75 0 0 0 0,-1.5 h -3.5 z"
     fill="#212121"
     id="path1"
     style="fill:#ffffff;fill-opacity:1" />
</svg>
