<?xml version="1.0" encoding="UTF-8" standalone="no"?>
<svg
   width="24"
   height="24"
   fill="none"
   viewBox="0 0 24 24"
   version="1.1"
   id="svg1"
   sodipodi:docname="delete.svg"
   inkscape:version="1.3.2 (091e20e, 2023-11-25, custom)"
   xmlns:inkscape="http://www.inkscape.org/namespaces/inkscape"
   xmlns:sodipodi="http://sodipodi.sourceforge.net/DTD/sodipodi-0.dtd"
   xmlns="http://www.w3.org/2000/svg"
   xmlns:svg="http://www.w3.org/2000/svg">
  <defs
     id="defs1" />
  <sodipodi:namedview
     id="namedview1"
     pagecolor="#505050"
     bordercolor="#ffffff"
     borderopacity="1"
     inkscape:showpageshadow="0"
     inkscape:pageopacity="0"
     inkscape:pagecheckerboard="1"
     inkscape:deskcolor="#d1d1d1"
     inkscape:zoom="35.416667"
     inkscape:cx="12"
     inkscape:cy="12"
     inkscape:window-width="1920"
     inkscape:window-height="1009"
     inkscape:window-x="1912"
     inkscape:window-y="-8"
     inkscape:window-maximized="1"
     inkscape:current-layer="svg1" />
  <path
     d="M21.5 6a1 1 0 0 1-.883.993L20.5 7h-.845l-1.231 12.52A2.75 2.75 0 0 1 15.687 22H8.313a2.75 2.75 0 0 1-2.737-2.48L4.345 7H3.5a1 1 0 0 1 0-2h5a3.5 3.5 0 1 1 7 0h5a1 1 0 0 1 1 1Zm-7.25 3.25a.75.75 0 0 0-.743.648L13.5 10v7l.007.102a.75.75 0 0 0 1.486 0L15 17v-7l-.007-.102a.75.75 0 0 0-.743-.648Zm-4.5 0a.75.75 0 0 0-.743.648L9 10v7l.007.102a.75.75 0 0 0 1.486 0L10.5 17v-7l-.007-.102a.75.75 0 0 0-.743-.648ZM12 3.5A1.5 1.5 0 0 0 10.5 5h3A1.5 1.5 0 0 0 12 3.5Z"
     fill="#212121"
     id="path1"
     style="fill:#ffffff;fill-opacity:1" />
</svg>
