<?xml version="1.0" encoding="UTF-8" standalone="no"?>
<svg
   width="24"
   height="24"
   fill="none"
   viewBox="0 0 24 24"
   version="1.1"
   id="svg2"
   sodipodi:docname="file_edit.svg"
   inkscape:version="1.4 (86a8ad7, 2024-10-11)"
   xmlns:inkscape="http://www.inkscape.org/namespaces/inkscape"
   xmlns:sodipodi="http://sodipodi.sourceforge.net/DTD/sodipodi-0.dtd"
   xmlns="http://www.w3.org/2000/svg"
   xmlns:svg="http://www.w3.org/2000/svg">
  <defs
     id="defs2" />
  <sodipodi:namedview
     id="namedview2"
     pagecolor="#505050"
     bordercolor="#ffffff"
     borderopacity="1"
     inkscape:showpageshadow="0"
     inkscape:pageopacity="0"
     inkscape:pagecheckerboard="1"
     inkscape:deskcolor="#505050"
     inkscape:zoom="17.583333"
     inkscape:cx="0.93838863"
     inkscape:cy="15.412322"
     inkscape:window-width="1920"
     inkscape:window-height="1009"
     inkscape:window-x="1072"
     inkscape:window-y="421"
     inkscape:window-maximized="1"
     inkscape:current-layer="svg2" />
  <path
     d="M12 2v6a2 2 0 0 0 2 2h4.92c-.596.22-1.144.554-1.558.97l-6.05 6.092a2.815 2.815 0 0 0-.728 1.279l-.525 2.03A2.082 2.082 0 0 0 10.3 22H5.5A1.5 1.5 0 0 1 4 20.5v-17A1.5 1.5 0 0 1 5.5 2H12Z"
     fill="#212121"
     id="path1"
     style="fill:#ffffff;fill-opacity:1" />
  <path
     d="M13.5 2.5V8a.5.5 0 0 0 .5.5h5.5l-6-6ZM12.196 17.572l5.902-5.902a2.285 2.285 0 1 1 3.233 3.232l-5.903 5.902a2.684 2.684 0 0 1-1.247.707l-1.831.457a1.087 1.087 0 0 1-1.318-1.318l.457-1.83c.118-.473.362-.904.707-1.248Z"
     fill="#212121"
     id="path2"
     style="fill:#ffffff;fill-opacity:1" />
</svg>
