<?xml version="1.0" encoding="UTF-8" standalone="no"?>
<svg
   width="90"
   height="90"
   fill="none"
   viewBox="0 0 90 90"
   version="1.1"
   id="svg1"
   sodipodi:docname="folder_LARGE.svg"
   inkscape:version="1.4 (86a8ad7, 2024-10-11)"
   xmlns:inkscape="http://www.inkscape.org/namespaces/inkscape"
   xmlns:sodipodi="http://sodipodi.sourceforge.net/DTD/sodipodi-0.dtd"
   xmlns="http://www.w3.org/2000/svg"
   xmlns:svg="http://www.w3.org/2000/svg">
  <defs
     id="defs1" />
  <sodipodi:namedview
     id="namedview1"
     pagecolor="#505050"
     bordercolor="#ffffff"
     borderopacity="1"
     inkscape:showpageshadow="0"
     inkscape:pageopacity="0"
     inkscape:pagecheckerboard="1"
     inkscape:deskcolor="#d1d1d1"
     inkscape:zoom="2.2135417"
     inkscape:cx="-112.26353"
     inkscape:cy="66.861176"
     inkscape:window-width="1920"
     inkscape:window-height="1009"
     inkscape:window-x="1072"
     inkscape:window-y="421"
     inkscape:window-maximized="1"
     inkscape:current-layer="svg1" />
  <path
     d="M 51.82875,24.375 H 74.0625 a 8.4375,8.4375 0 0 1 8.35875,7.2675 l 0.06,0.5925 0.01875,0.5775 v 33.75 a 8.4375,8.4375 0 0 1 -7.86,8.41875 L 74.0625,75 H 15.9375 A 8.4375,8.4375 0 0 1 7.51875,67.14 L 7.5,66.5625 V 39.37125 l 23.27625,0.0038 0.735,-0.03375 a 8.4375,8.4375 0 0 0 4.08,-1.47375 l 0.585,-0.45 z M 30.77625,15 c 1.725,0 3.405,0.52875 4.815,1.5075 l 0.585,0.45 7.88625,6.56625 -11.48625,9.57375 -0.31875,0.22875 A 2.8125,2.8125 0 0 1 31.17,33.72375 L 30.7725,33.75 7.5,33.74625 V 23.4375 a 8.4375,8.4375 0 0 1 7.86,-8.41875 L 15.9375,15 Z"
     fill="#212121"
     id="path1"
     style="fill:#ffffff;fill-opacity:1;stroke-width:3.75" />
</svg>
