<?xml version="1.0" encoding="UTF-8" standalone="no"?>
<svg
   width="24"
   height="24"
   fill="none"
   viewBox="0 0 24 24"
   version="1.1"
   id="svg1"
   sodipodi:docname="open_recent.svg"
   xml:space="preserve"
   inkscape:version="1.4 (86a8ad7, 2024-10-11)"
   xmlns:inkscape="http://www.inkscape.org/namespaces/inkscape"
   xmlns:sodipodi="http://sodipodi.sourceforge.net/DTD/sodipodi-0.dtd"
   xmlns="http://www.w3.org/2000/svg"
   xmlns:svg="http://www.w3.org/2000/svg"><defs
     id="defs1" /><sodipodi:namedview
     id="namedview1"
     pagecolor="#505050"
     bordercolor="#ffffff"
     borderopacity="1"
     inkscape:showpageshadow="0"
     inkscape:pageopacity="0"
     inkscape:pagecheckerboard="1"
     inkscape:deskcolor="#505050"
     inkscape:zoom="8.7916667"
     inkscape:cx="1.8767772"
     inkscape:cy="20.018957"
     inkscape:window-width="1920"
     inkscape:window-height="1009"
     inkscape:window-x="1072"
     inkscape:window-y="421"
     inkscape:window-maximized="1"
     inkscape:current-layer="svg1" /><path
     d="M 2,6.25 A 2.25,2.25 0 0 1 4.25,4 H 8.206 A 2.25,2.25 0 0 1 9.644,4.52 L 12.025,6.5 H 17.75 A 2.25,2.25 0 0 1 20,8.75 V 9.502 H 6.422 a 2.25,2.25 0 0 0 -2.183,1.705 l -1.923,7.7 c 0.043,-0.171 0,0.005 0,0 a 2.24,2.24 0 0 1 -0.32,-1.158 z"
     fill="#212121"
     id="path1-9"
     style="fill:#ffffff;fill-opacity:1"
     transform="translate(0.02894579)" /><path
     id="path2"
     style="fill:#ffffff;fill-opacity:1"
     d="M 6.4222261 11.001953 A 0.75 0.75 0 0 0 5.6937105 11.570312 L 3.7444917 19.380859 A 0.5 0.5 0 0 0 4.2308198 20 L 11.473007 20 C 11.149838 19.229632 10.971054 18.384895 10.971054 17.5 C 10.971054 13.950111 13.847548 11.047376 17.38707 11.001953 L 6.4222261 11.001953 z M 17.555039 11.001953 C 19.132194 11.022193 20.575713 11.610679 21.69371 12.570312 L 21.930039 11.623047 A 0.5 0.5 0 0 0 21.445664 11.001953 L 17.555039 11.001953 z "
     transform="translate(0.02894579)" /><path
     d="m 17.5,12 c 3.037568,0 5.499998,2.462434 5.499998,5.5 0,3.037566 -2.46243,5.5 -5.499998,5.5 -3.037568,0 -5.499998,-2.462434 -5.499998,-5.5 0,-3.037566 2.46243,-5.5 5.499998,-5.5 z m -1,2 C 16.223858,14 16,14.223858 16,14.5 v 4 c 0,0.276142 0.223858,0.5 0.5,0.5 h 3.002 c 0.666666,0 0.666666,-1 0,-1 H 17 V 14.5 C 17,14.223858 16.776142,14 16.5,14 Z"
     fill="#212121"
     id="path1"
     sodipodi:nodetypes="ssssssssssscss"
     style="fill:#ffffff;fill-opacity:1" /></svg>
