<?xml version="1.0" encoding="UTF-8" standalone="no"?>
<svg
   width="24"
   height="24"
   fill="none"
   viewBox="0 0 24 24"
   version="1.1"
   id="svg1"
   sodipodi:docname="folder_up.svg"
   inkscape:version="1.4 (86a8ad7, 2024-10-11)"
   xmlns:inkscape="http://www.inkscape.org/namespaces/inkscape"
   xmlns:sodipodi="http://sodipodi.sourceforge.net/DTD/sodipodi-0.dtd"
   xmlns="http://www.w3.org/2000/svg"
   xmlns:svg="http://www.w3.org/2000/svg">
  <defs
     id="defs1" />
  <sodipodi:namedview
     id="namedview1"
     pagecolor="#505050"
     bordercolor="#ffffff"
     borderopacity="1"
     inkscape:showpageshadow="0"
     inkscape:pageopacity="0"
     inkscape:pagecheckerboard="1"
     inkscape:deskcolor="#505050"
     inkscape:zoom="35.166667"
     inkscape:cx="11.985782"
     inkscape:cy="12"
     inkscape:window-width="1920"
     inkscape:window-height="1009"
     inkscape:window-x="1072"
     inkscape:window-y="421"
     inkscape:window-maximized="1"
     inkscape:current-layer="svg1" />
  <path
     d="M20 21a1 1 0 0 1-.883.993L19 22h-6.5a3.5 3.5 0 0 1-3.495-3.308L9 18.5V5.415L5.707 8.707a1 1 0 0 1-1.32.083l-.094-.083a1 1 0 0 1-.083-1.32l.083-.094 5-5a1.01 1.01 0 0 1 .112-.097l.11-.071.114-.054.105-.035.118-.025.058-.007L10 2l.075.003.126.017.111.03.111.044.098.052.092.064.094.083 5 5a1 1 0 0 1-1.32 1.497l-.094-.083L11 5.415V18.5a1.5 1.5 0 0 0 1.355 1.493L12.5 20H19a1 1 0 0 1 1 1Z"
     fill="#212121"
     id="path1"
     style="fill:#ffffff;fill-opacity:1" />
</svg>
