<?xml version="1.0" encoding="UTF-8" standalone="no"?>
<svg
   width="24"
   height="24"
   fill="none"
   viewBox="0 0 24 24"
   version="1.1"
   id="svg1"
   sodipodi:docname="folder.svg"
   inkscape:version="1.3.2 (091e20e, 2023-11-25, custom)"
   xmlns:inkscape="http://www.inkscape.org/namespaces/inkscape"
   xmlns:sodipodi="http://sodipodi.sourceforge.net/DTD/sodipodi-0.dtd"
   xmlns="http://www.w3.org/2000/svg"
   xmlns:svg="http://www.w3.org/2000/svg">
  <defs
     id="defs1" />
  <sodipodi:namedview
     id="namedview1"
     pagecolor="#505050"
     bordercolor="#ffffff"
     borderopacity="1"
     inkscape:showpageshadow="0"
     inkscape:pageopacity="0"
     inkscape:pagecheckerboard="1"
     inkscape:deskcolor="#d1d1d1"
     inkscape:zoom="35.416667"
     inkscape:cx="12"
     inkscape:cy="12"
     inkscape:window-width="1920"
     inkscape:window-height="1009"
     inkscape:window-x="1912"
     inkscape:window-y="-8"
     inkscape:window-maximized="1"
     inkscape:current-layer="svg1" />
  <path
     d="M13.821 6.5h5.929a2.25 2.25 0 0 1 2.229 1.938l.016.158.005.154v9a2.25 2.25 0 0 1-2.096 2.245L19.75 20H4.25a2.25 2.25 0 0 1-2.245-2.096L2 17.75v-7.251l6.207.001.196-.009a2.25 2.25 0 0 0 1.088-.393l.156-.12L13.821 6.5ZM8.207 4c.46 0 .908.141 1.284.402l.156.12 2.103 1.751-3.063 2.553-.085.061a.75.75 0 0 1-.29.106L8.206 9 2 8.999V6.25a2.25 2.25 0 0 1 2.096-2.245L4.25 4h3.957Z"
     fill="#212121"
     id="path1"
     style="fill:#ffffff;fill-opacity:1" />
</svg>
