<?xml version="1.0" encoding="UTF-8" standalone="no"?>
<svg
   width="24"
   height="24"
   fill="none"
   viewBox="0 0 24 24"
   version="1.1"
   id="svg1"
   sodipodi:docname="hide.svg"
   inkscape:version="1.3 (0e150ed6c4, 2023-07-21)"
   xmlns:inkscape="http://www.inkscape.org/namespaces/inkscape"
   xmlns:sodipodi="http://sodipodi.sourceforge.net/DTD/sodipodi-0.dtd"
   xmlns="http://www.w3.org/2000/svg"
   xmlns:svg="http://www.w3.org/2000/svg">
  <defs
     id="defs1" />
  <sodipodi:namedview
     id="namedview1"
     pagecolor="#505050"
     bordercolor="#ffffff"
     borderopacity="1"
     inkscape:showpageshadow="0"
     inkscape:pageopacity="0"
     inkscape:pagecheckerboard="1"
     inkscape:deskcolor="#d1d1d1"
     inkscape:zoom="35.416667"
     inkscape:cx="12"
     inkscape:cy="12"
     inkscape:window-width="1920"
     inkscape:window-height="1009"
     inkscape:window-x="1912"
     inkscape:window-y="-8"
     inkscape:window-maximized="1"
     inkscape:current-layer="svg1" />
  <path
     d="M2.22 2.22a.75.75 0 0 0-.073.976l.073.084 4.034 4.035a9.986 9.986 0 0 0-3.955 5.75.75.75 0 0 0 1.455.364 8.49 8.49 0 0 1 3.58-5.034l1.81 1.81A4 4 0 0 0 14.8 15.86l5.919 5.92a.75.75 0 0 0 1.133-.977l-.073-.084-6.113-6.114.001-.002-6.95-6.946.002-.002-1.133-1.13L3.28 2.22a.75.75 0 0 0-1.06 0ZM12 5.5c-1 0-1.97.148-2.889.425l1.237 1.236a8.503 8.503 0 0 1 9.899 6.272.75.75 0 0 0 1.455-.363A10.003 10.003 0 0 0 12 5.5Zm.195 3.51 3.801 3.8a4.003 4.003 0 0 0-3.801-3.8Z"
     fill="#212121"
     id="path1"
     style="fill:#ffffff;fill-opacity:1" />
</svg>
