<?xml version="1.0" encoding="UTF-8" standalone="no"?>
<svg
   width="24"
   height="24"
   fill="none"
   viewBox="0 0 24 24"
   version="1.1"
   id="svg1"
   sodipodi:docname="image.svg"
   inkscape:version="1.3.2 (091e20e, 2023-11-25, custom)"
   xmlns:inkscape="http://www.inkscape.org/namespaces/inkscape"
   xmlns:sodipodi="http://sodipodi.sourceforge.net/DTD/sodipodi-0.dtd"
   xmlns="http://www.w3.org/2000/svg"
   xmlns:svg="http://www.w3.org/2000/svg">
  <defs
     id="defs1" />
  <sodipodi:namedview
     id="namedview1"
     pagecolor="#505050"
     bordercolor="#ffffff"
     borderopacity="1"
     inkscape:showpageshadow="0"
     inkscape:pageopacity="0"
     inkscape:pagecheckerboard="1"
     inkscape:deskcolor="#d1d1d1"
     inkscape:zoom="35.416667"
     inkscape:cx="12"
     inkscape:cy="12"
     inkscape:window-width="1920"
     inkscape:window-height="1009"
     inkscape:window-x="1912"
     inkscape:window-y="-8"
     inkscape:window-maximized="1"
     inkscape:current-layer="svg1" />
  <path
     d="m11.475 13.718.083-.071a.75.75 0 0 1 .874-.007l.093.078 6.928 6.8A3.235 3.235 0 0 1 17.75 21H6.25a3.235 3.235 0 0 1-1.703-.481l6.928-6.801.083-.071-.083.07ZM17.75 3A3.25 3.25 0 0 1 21 6.25v11.5c0 .627-.178 1.213-.485 1.71l-6.939-6.813-.128-.116a2.25 2.25 0 0 0-2.889-.006l-.135.123-6.939 6.811A3.235 3.235 0 0 1 3 17.75V6.25A3.25 3.25 0 0 1 6.25 3h11.5Zm-1.998 3a2.252 2.252 0 1 0 0 4.504 2.252 2.252 0 0 0 0-4.504Zm0 1.5a.752.752 0 1 1 0 1.504.752.752 0 0 1 0-1.504Z"
     fill="#212121"
     id="path1"
     style="fill:#ffffff;fill-opacity:1" />
</svg>
