<?xml version="1.0" encoding="UTF-8" standalone="no"?>
<svg
   width="90"
   height="90"
   fill="none"
   viewBox="0 0 25 25"
   version="1.1"
   id="svg1"
   sodipodi:docname="image_LARGE.svg"
   inkscape:version="1.4 (86a8ad7, 2024-10-11)"
   xmlns:inkscape="http://www.inkscape.org/namespaces/inkscape"
   xmlns:sodipodi="http://sodipodi.sourceforge.net/DTD/sodipodi-0.dtd"
   xmlns="http://www.w3.org/2000/svg"
   xmlns:svg="http://www.w3.org/2000/svg">
  <defs
     id="defs1" />
  <sodipodi:namedview
     id="namedview1"
     pagecolor="#505050"
     bordercolor="#ffffff"
     borderopacity="1"
     inkscape:showpageshadow="0"
     inkscape:pageopacity="0"
     inkscape:pagecheckerboard="1"
     inkscape:deskcolor="#d1d1d1"
     inkscape:zoom="17.708334"
     inkscape:cx="7.2564705"
     inkscape:cy="16.884706"
     inkscape:window-width="1920"
     inkscape:window-height="1009"
     inkscape:window-x="1072"
     inkscape:window-y="421"
     inkscape:window-maximized="1"
     inkscape:current-layer="svg1" />
  <path
     d="m 11.475,13.718 0.083,-0.071 a 0.75,0.75 0 0 1 0.874,-0.007 l 0.093,0.078 6.928,6.8 A 3.235,3.235 0 0 1 17.75,21 H 6.25 A 3.235,3.235 0 0 1 4.547,20.519 l 6.928,-6.801 0.083,-0.071 -0.083,0.07 z M 17.75,3 A 3.25,3.25 0 0 1 21,6.25 v 11.5 c 0,0.627 -0.178,1.213 -0.485,1.71 l -6.939,-6.813 -0.128,-0.116 a 2.25,2.25 0 0 0 -2.889,-0.006 l -0.135,0.123 -6.939,6.811 A 3.235,3.235 0 0 1 3,17.75 V 6.25 A 3.25,3.25 0 0 1 6.25,3 Z m -1.998,3 a 2.252,2.252 0 1 0 0,4.504 2.252,2.252 0 0 0 0,-4.504 z m 0,1.5 a 0.752,0.752 0 1 1 0,1.504 0.752,0.752 0 0 1 0,-1.504 z"
     fill="#212121"
     id="path1"
     style="fill:#ffffff;fill-opacity:1" />
</svg>
