<?xml version="1.0" encoding="UTF-8" standalone="no"?>
<svg
   width="24"
   height="24"
   fill="none"
   viewBox="0 0 24 24"
   version="1.1"
   id="svg1"
   sodipodi:docname="key.svg"
   inkscape:version="1.3.2 (091e20e, 2023-11-25, custom)"
   xmlns:inkscape="http://www.inkscape.org/namespaces/inkscape"
   xmlns:sodipodi="http://sodipodi.sourceforge.net/DTD/sodipodi-0.dtd"
   xmlns="http://www.w3.org/2000/svg"
   xmlns:svg="http://www.w3.org/2000/svg">
  <defs
     id="defs1" />
  <sodipodi:namedview
     id="namedview1"
     pagecolor="#505050"
     bordercolor="#ffffff"
     borderopacity="1"
     inkscape:showpageshadow="0"
     inkscape:pageopacity="0"
     inkscape:pagecheckerboard="1"
     inkscape:deskcolor="#d1d1d1"
     inkscape:zoom="35.416667"
     inkscape:cx="12"
     inkscape:cy="12"
     inkscape:window-width="1920"
     inkscape:window-height="1009"
     inkscape:window-x="1912"
     inkscape:window-y="-8"
     inkscape:window-maximized="1"
     inkscape:current-layer="svg1" />
  <path
     d="M8.95 8.6a6.554 6.554 0 0 1 6.55-6.55c3.596 0 6.55 2.819 6.55 6.45a6.554 6.554 0 0 1-6.55 6.55c-.531 0-1.055-.076-1.552-.204A1.25 1.25 0 0 1 12.7 16.05h-1.75v1.75c0 .69-.56 1.25-1.25 1.25H7.95v1.25a1.75 1.75 0 0 1-1.75 1.75H3.7a1.75 1.75 0 0 1-1.75-1.75v-2.172c0-.73.29-1.429.806-1.944L8.99 9.948a.275.275 0 0 0 .07-.244A6.386 6.386 0 0 1 8.95 8.6Zm9.3-1.6a1.25 1.25 0 1 0-2.5 0 1.25 1.25 0 0 0 2.5 0Z"
     fill="#212121"
     id="path1"
     style="fill:#ffffff;fill-opacity:1" />
</svg>
