<?xml version="1.0" encoding="UTF-8" standalone="no"?>
<svg
   width="24"
   height="24"
   fill="none"
   viewBox="0 0 24 24"
   version="1.1"
   id="svg1"
   sodipodi:docname="link.svg"
   inkscape:version="1.4 (86a8ad7, 2024-10-11)"
   xmlns:inkscape="http://www.inkscape.org/namespaces/inkscape"
   xmlns:sodipodi="http://sodipodi.sourceforge.net/DTD/sodipodi-0.dtd"
   xmlns="http://www.w3.org/2000/svg"
   xmlns:svg="http://www.w3.org/2000/svg">
  <defs
     id="defs1" />
  <sodipodi:namedview
     id="namedview1"
     pagecolor="#505050"
     bordercolor="#ffffff"
     borderopacity="1"
     inkscape:showpageshadow="0"
     inkscape:pageopacity="0"
     inkscape:pagecheckerboard="1"
     inkscape:deskcolor="#505050"
     inkscape:zoom="35.166667"
     inkscape:cx="12"
     inkscape:cy="12"
     inkscape:window-width="1920"
     inkscape:window-height="1009"
     inkscape:window-x="1072"
     inkscape:window-y="421"
     inkscape:window-maximized="1"
     inkscape:current-layer="svg1" />
  <path
     d="M9 7a1 1 0 0 1 .117 1.993L9 9H7a3 3 0 0 0-.176 5.995L7 15h2a1 1 0 0 1 .117 1.993L9 17H7a5 5 0 0 1-.217-9.995L7 7h2Zm8 0a5 5 0 0 1 .217 9.995L17 17h-2a1 1 0 0 1-.117-1.993L15 15h2a3 3 0 0 0 .176-5.995L17 9h-2a1 1 0 0 1-.117-1.993L15 7h2ZM7 11h10a1 1 0 0 1 .117 1.993L17 13H7a1 1 0 0 1-.117-1.993L7 11h10H7Z"
     fill="#212121"
     id="path1"
     style="fill:#ffffff;fill-opacity:1" />
</svg>
