<?xml version="1.0" encoding="UTF-8" standalone="no"?>
<svg
   width="24"
   height="24"
   fill="none"
   viewBox="0 0 24 24"
   version="1.1"
   id="svg1"
   sodipodi:docname="map.svg"
   inkscape:version="1.4 (86a8ad7, 2024-10-11)"
   xmlns:inkscape="http://www.inkscape.org/namespaces/inkscape"
   xmlns:sodipodi="http://sodipodi.sourceforge.net/DTD/sodipodi-0.dtd"
   xmlns="http://www.w3.org/2000/svg"
   xmlns:svg="http://www.w3.org/2000/svg">
  <defs
     id="defs1" />
  <sodipodi:namedview
     id="namedview1"
     pagecolor="#505050"
     bordercolor="#ffffff"
     borderopacity="1"
     inkscape:showpageshadow="0"
     inkscape:pageopacity="0"
     inkscape:pagecheckerboard="1"
     inkscape:deskcolor="#505050"
     inkscape:zoom="24.866588"
     inkscape:cx="9.5308611"
     inkscape:cy="12.345883"
     inkscape:window-width="1920"
     inkscape:window-height="1009"
     inkscape:window-x="1072"
     inkscape:window-y="421"
     inkscape:window-maximized="1"
     inkscape:current-layer="svg1" />
  <path
     d="M8.5 4.358v12.465l-4.32 3.038a.75.75 0 0 1-1.174-.509l-.007-.104V8.615a.75.75 0 0 1 .238-.548l.08-.065L8.5 4.358Zm12.494.29.007.104v10.633a.75.75 0 0 1-.238.548l-.08.065L15.5 19.64V7.174l4.32-3.035a.75.75 0 0 1 1.174.509ZM10 4.359l4 2.812v12.467l-4-2.814V4.359Z"
     fill="#212121"
     id="path1"
     style="fill:#ffffff;fill-opacity:1" />
</svg>
