<?xml version="1.0" encoding="UTF-8" standalone="no"?>
<!-- Created with Inkscape (http://www.inkscape.org/) -->

<svg
   width="176"
   height="176"
   viewBox="0 0 176 176"
   version="1.1"
   id="svg1"
   xml:space="preserve"
   inkscape:version="1.3.2 (091e20e, 2023-11-25, custom)"
   sodipodi:docname="NinePatchScaler.svg"
   xmlns:inkscape="http://www.inkscape.org/namespaces/inkscape"
   xmlns:sodipodi="http://sodipodi.sourceforge.net/DTD/sodipodi-0.dtd"
   xmlns="http://www.w3.org/2000/svg"
   xmlns:svg="http://www.w3.org/2000/svg"><sodipodi:namedview
     id="namedview1"
     pagecolor="#505050"
     bordercolor="#ffffff"
     borderopacity="1"
     inkscape:showpageshadow="0"
     inkscape:pageopacity="0"
     inkscape:pagecheckerboard="1"
     inkscape:deskcolor="#d1d1d1"
     inkscape:document-units="px"
     inkscape:zoom="4"
     inkscape:cx="120.5"
     inkscape:cy="105.5"
     inkscape:window-width="1920"
     inkscape:window-height="1009"
     inkscape:window-x="1912"
     inkscape:window-y="-8"
     inkscape:window-maximized="1"
     inkscape:current-layer="g6" /><defs
     id="defs1" /><g
     inkscape:label="Layer 1"
     inkscape:groupmode="layer"
     id="layer1"><g
       id="g8"
       transform="scale(1.9999999)"><g
         id="g6"
         transform="scale(15.118111)"><path
           d="m 4.7624999,0.79374999 c 0.1461254,0 0.2645834,0.11845793 0.2645834,0.26458331 V 1.5875 c 0,0.3527777 0.5291666,0.3527777 0.5291666,0 V 1.0583333 c 0,-0.43837593 -0.355374,-0.79374997 -0.79375,-0.79374997 H 4.2333333 c -0.3527777,0 -0.3527777,0.52916666 0,0.52916666 z"
           fill="#212121"
           id="path1-7"
           style="fill:#fefefe;fill-opacity:1;stroke-width:0.264583"
           sodipodi:nodetypes="sssssssss" /><path
           d="m 5.0270832,4.7624999 c 0,0.1461254 -0.1184579,0.2645834 -0.2645833,0.2645834 H 4.2333333 c -0.3527777,0 -0.3527777,0.5291666 0,0.5291666 h 0.5291666 c 0.438376,0 0.79375,-0.355374 0.79375,-0.79375 V 4.2333333 c 0,-0.3527777 -0.5291667,-0.3527777 -0.5291667,0 z"
           fill="#212121"
           id="path2-3"
           style="fill:#fefefe;fill-opacity:1;stroke-width:0.264583"
           sodipodi:nodetypes="sssssssss" /><path
           d="m 1.0583334,5.0270832 c -0.14612544,0 -0.26458337,-0.1184579 -0.26458337,-0.2645833 V 4.2333333 c 0,-0.3527777 -0.52916666,-0.3527777 -0.52916666,0 v 0.5291666 c 0,0.438376 0.35537404,0.79375 0.79375003,0.79375 H 1.5875 c 0.3527777,0 0.3527777,-0.5291667 0,-0.5291667 z"
           fill="#212121"
           id="path3-6"
           style="fill:#fefefe;fill-opacity:1;stroke-width:0.264583"
           sodipodi:nodetypes="sssssssss" /><path
           d="m 0.79374999,1.0583334 c 0,-0.14612544 0.11845793,-0.26458337 0.26458331,-0.26458337 H 1.5875 c 0.3527777,0 0.3527777,-0.52916666 0,-0.52916666 H 1.0583333 c -0.43837593,0 -0.79374997,0.35537404 -0.79374997,0.79375003 V 1.5875 c 0,0.3527777 0.52916666,0.3527777 0.52916666,0 z"
           fill="#212121"
           id="path4-4"
           style="fill:#fefefe;fill-opacity:1;stroke-width:0.264583"
           sodipodi:nodetypes="sssssssss" /><path
           style="color:#000000;fill:#ffffff;fill-opacity:0.504831;stroke-width:0.132291;stroke-linecap:round;stroke-linejoin:round;-inkscape-stroke:none;paint-order:stroke markers fill"
           d="m 2.2464043,0.6614583 1.3280099,10e-9 c 0.1729835,0 0.1729835,-0.2645833 0,-0.2645833 l -1.3280099,-10e-9 c -0.1729835,0 -0.1729835,0.2645833 0,0.2645833 z"
           id="path8"
           sodipodi:nodetypes="sssss" /><path
           style="color:#000000;fill:#ffffff;fill-opacity:0.504831;stroke-width:0.132291;stroke-linecap:round;stroke-linejoin:round;-inkscape-stroke:none;paint-order:stroke markers fill"
           d="m 2.2464043,5.4239585 h 1.3280099 c 0.1729835,0 0.1729835,-0.2645833 0,-0.2645833 H 2.2464043 c -0.1729835,0 -0.1729835,0.2645833 0,0.2645833 z"
           id="path12"
           sodipodi:nodetypes="sssss" /><path
           style="color:#000000;fill:#ffffff;fill-opacity:0.504831;stroke-width:0.132291;stroke-linecap:round;stroke-linejoin:round;-inkscape-stroke:none;paint-order:stroke markers fill"
           d="m 5.1593677,2.2464118 0,1.3280099 c 0,0.1729835 0.2645833,0.1729835 0.2645833,0 l 0,-1.3280099 c 0,-0.1729835 -0.2645833,-0.1729835 -0.2645833,0 z"
           id="path13"
           sodipodi:nodetypes="sssss" /><path
           style="color:#000000;fill:#ffffff;fill-opacity:0.504831;stroke-width:0.132291;stroke-linecap:round;stroke-linejoin:round;-inkscape-stroke:none;paint-order:stroke markers fill"
           d="m 0.3968675,2.2464118 v 1.3280099 c 0,0.1729835 0.2645833,0.1729835 0.2645833,0 V 2.2464118 c 0,-0.1729835 -0.2645833,-0.1729835 -0.2645833,0 z"
           id="path14"
           sodipodi:nodetypes="sssss" /></g></g></g></svg>
