<?xml version="1.0" encoding="UTF-8" standalone="no"?>
<svg
   width="24"
   height="24"
   fill="none"
   viewBox="0 0 24 24"
   version="1.1"
   id="svg2"
   sodipodi:docname="pc_view_close.svg"
   inkscape:version="1.4 (86a8ad7, 2024-10-11)"
   xmlns:inkscape="http://www.inkscape.org/namespaces/inkscape"
   xmlns:sodipodi="http://sodipodi.sourceforge.net/DTD/sodipodi-0.dtd"
   xmlns="http://www.w3.org/2000/svg"
   xmlns:svg="http://www.w3.org/2000/svg">
  <defs
     id="defs2" />
  <sodipodi:namedview
     id="namedview2"
     pagecolor="#505050"
     bordercolor="#ffffff"
     borderopacity="1"
     inkscape:showpageshadow="0"
     inkscape:pageopacity="0"
     inkscape:pagecheckerboard="1"
     inkscape:deskcolor="#505050"
     inkscape:zoom="17.583333"
     inkscape:cx="11.374408"
     inkscape:cy="13.706161"
     inkscape:window-width="1920"
     inkscape:window-height="1009"
     inkscape:window-x="1072"
     inkscape:window-y="421"
     inkscape:window-maximized="1"
     inkscape:current-layer="svg2" />
  <path
     d="M2.22 2.22a.75.75 0 0 1 1.06 0l18.5 18.5a.75.75 0 0 1-1.06 1.06l-1.776-1.775H4.25A2.25 2.25 0 0 1 2 17.755V6.25a2.25 2.25 0 0 1 1.2-1.99l-.98-.98a.75.75 0 0 1 0-1.06ZM11.939 13a3 3 0 0 1-2.938-2.939L4.439 5.5H4.25a.75.75 0 0 0-.75.75v11.505c0 .414.336.75.75.75l2.749-.001L7 15.75a1.75 1.75 0 0 1 1.606-1.744L8.75 14h4.19l-1.001-1ZM14.629 11.447l-4.075-4.075a3 3 0 0 1 4.075 4.075Z"
     fill="#212121"
     id="path1"
     style="fill:#ffffff;fill-opacity:1" />
  <path
     d="M20.495 17.314V6.25a.75.75 0 0 0-.75-.75H8.682L7.182 4h12.563a2.25 2.25 0 0 1 2.25 2.25v11.505c0 .312-.063.61-.178.88l-1.322-1.321Z"
     fill="#212121"
     id="path2"
     style="fill:#ffffff;fill-opacity:1" />
</svg>
