<?xml version="1.0" encoding="UTF-8" standalone="no"?>
<svg
   width="24"
   height="24"
   fill="none"
   viewBox="0 0 24 24"
   version="1.1"
   id="svg1"
   sodipodi:docname="reload.svg"
   inkscape:version="1.3.2 (091e20e, 2023-11-25, custom)"
   xmlns:inkscape="http://www.inkscape.org/namespaces/inkscape"
   xmlns:sodipodi="http://sodipodi.sourceforge.net/DTD/sodipodi-0.dtd"
   xmlns="http://www.w3.org/2000/svg"
   xmlns:svg="http://www.w3.org/2000/svg">
  <defs
     id="defs1" />
  <sodipodi:namedview
     id="namedview1"
     pagecolor="#505050"
     bordercolor="#ffffff"
     borderopacity="1"
     inkscape:showpageshadow="0"
     inkscape:pageopacity="0"
     inkscape:pagecheckerboard="1"
     inkscape:deskcolor="#d1d1d1"
     inkscape:zoom="35.416667"
     inkscape:cx="12"
     inkscape:cy="12"
     inkscape:window-width="1920"
     inkscape:window-height="1009"
     inkscape:window-x="1912"
     inkscape:window-y="-8"
     inkscape:window-maximized="1"
     inkscape:current-layer="svg1" />
  <path
     d="M12 4.75a7.25 7.25 0 1 1-7.201 6.406C4.867 10.568 4.44 10 3.849 10c-.515 0-.968.358-1.03.87A9.25 9.25 0 1 0 6.25 4.754V4.25a1 1 0 0 0-2.001 0v2.698A9.322 9.322 0 0 0 4.216 7h.034v.25a1 1 0 0 0 1 1h3a1 1 0 0 0 0-2h-.666A7.219 7.219 0 0 1 12 4.75Z"
     fill="#212121"
     id="path1"
     style="fill:#fefefe;fill-opacity:1" />
</svg>
