<?xml version="1.0" encoding="UTF-8" standalone="no"?>
<svg
   width="48"
   height="48"
   fill="none"
   viewBox="0 0 24 24"
   version="1.1"
   id="svg1"
   sodipodi:docname="rotator.svg"
   inkscape:version="1.3.2 (091e20e, 2023-11-25, custom)"
   xmlns:inkscape="http://www.inkscape.org/namespaces/inkscape"
   xmlns:sodipodi="http://sodipodi.sourceforge.net/DTD/sodipodi-0.dtd"
   xmlns="http://www.w3.org/2000/svg"
   xmlns:svg="http://www.w3.org/2000/svg">
  <path
     id="path7"
     style="stroke:#ffffff;stroke-width:2;stroke-linecap:round;stroke-linejoin:round;paint-order:stroke markers fill"
     d="M 13.499988,12 A 1.4999882,1.4999902 0 0 1 12,13.49999 1.4999882,1.4999902 0 0 1 10.500012,12 1.4999882,1.4999902 0 0 1 12,10.50001 1.4999882,1.4999902 0 0 1 13.499988,12 Z" />
  <defs
     id="defs1" />
  <sodipodi:namedview
     id="namedview1"
     pagecolor="#505050"
     bordercolor="#ffffff"
     borderopacity="1"
     inkscape:showpageshadow="0"
     inkscape:pageopacity="0"
     inkscape:pagecheckerboard="1"
     inkscape:deskcolor="#d1d1d1"
     inkscape:zoom="5.6568543"
     inkscape:cx="71.241008"
     inkscape:cy="13.965359"
     inkscape:window-width="1920"
     inkscape:window-height="1009"
     inkscape:window-x="1912"
     inkscape:window-y="-8"
     inkscape:window-maximized="1"
     inkscape:current-layer="svg1" />
  <path
     d="M 12,1 C 11.447726,1 11,1.4477263 11,2 V 2.9765625 C 6.8388529,3.4451569 3.5307944,6.8015387 3.0722656,11 H 2 c -0.5522836,0 -1,0.447716 -1,1 0,0.552284 0.4477164,1 1,1 H 3.0722656 C 3.530801,17.19852 6.8387947,20.554837 11,21.023437 V 22 c 0,0.552281 0.447719,1 1,1 0.552281,0 1,-0.447719 1,-1 V 21.023437 C 17.161188,20.554838 20.469201,17.198503 20.927734,13 H 22 c 0.552277,0 1,-0.447723 1,-1 0,-0.552277 -0.447723,-1 -1,-1 H 20.927734 C 20.469204,6.801522 17.161163,3.4451589 13,2.9765625 V 2 C 13,1.4477263 12.552274,1 12,1 Z m 0,3.9199219 c 3.862323,10e-8 6.984375,3.1518223 6.984375,7.0800781 0,3.928279 -3.122029,7.080078 -6.984375,7.080078 C 8.1376385,19.080078 5.0156251,15.928295 5.015625,12 5.015625,8.0717599 8.1376924,4.9199219 12,4.9199219 Z"
     style="fill:#ffffff;stroke-linecap:round;stroke-linejoin:round;paint-order:stroke markers fill"
     id="path8" />
</svg>
