<?xml version="1.0" encoding="UTF-8" standalone="no"?>
<svg
   width="24"
   height="24"
   fill="none"
   viewBox="0 0 24 24"
   version="1.1"
   id="svg2"
   sodipodi:docname="save.svg"
   inkscape:version="1.3.2 (091e20e, 2023-11-25, custom)"
   xmlns:inkscape="http://www.inkscape.org/namespaces/inkscape"
   xmlns:sodipodi="http://sodipodi.sourceforge.net/DTD/sodipodi-0.dtd"
   xmlns="http://www.w3.org/2000/svg"
   xmlns:svg="http://www.w3.org/2000/svg">
  <defs
     id="defs2" />
  <sodipodi:namedview
     id="namedview2"
     pagecolor="#505050"
     bordercolor="#ffffff"
     borderopacity="1"
     inkscape:showpageshadow="0"
     inkscape:pageopacity="0"
     inkscape:pagecheckerboard="1"
     inkscape:deskcolor="#d1d1d1"
     inkscape:zoom="35.416667"
     inkscape:cx="12"
     inkscape:cy="12"
     inkscape:window-width="1920"
     inkscape:window-height="1009"
     inkscape:window-x="1912"
     inkscape:window-y="-8"
     inkscape:window-maximized="1"
     inkscape:current-layer="svg2" />
  <path
     d="M6.75 3h-1A2.75 2.75 0 0 0 3 5.75v12.5A2.75 2.75 0 0 0 5.75 21H6v-6a2.25 2.25 0 0 1 2.25-2.25h7.5A2.25 2.25 0 0 1 18 15v6h.25A2.75 2.75 0 0 0 21 18.25V8.286a3.25 3.25 0 0 0-.952-2.299l-2.035-2.035A3.25 3.25 0 0 0 15.75 3v4.5a2.25 2.25 0 0 1-2.25 2.25H9A2.25 2.25 0 0 1 6.75 7.5V3Z"
     fill="#212121"
     id="path1"
     style="fill:#ffffff;fill-opacity:1" />
  <path
     d="M14.25 3v4.5a.75.75 0 0 1-.75.75H9a.75.75 0 0 1-.75-.75V3h6ZM16.5 21v-6a.75.75 0 0 0-.75-.75h-7.5a.75.75 0 0 0-.75.75v6h9Z"
     fill="#212121"
     id="path2"
     style="fill:#ffffff;fill-opacity:1" />
</svg>
